<svg width="24" height="24" viewBox="0 0 24 24" fill="none" xmlns="http://www.w3.org/2000/svg">
<g id="Warning 1" clip-path="url(#clip0_356_2198)">
<g id="&#231;&#187;&#132;&#228;&#187;&#182;&#229;&#136;&#134;&#231;&#177;&#187;-&#228;&#186;&#174;&#232;&#137;&#178;">
<g id="Icon/Warning">
<path id="&#229;&#189;&#162;&#231;&#138;&#182;" fill-rule="evenodd" clip-rule="evenodd" d="M12 21C16.9701 21 21 16.9701 21 12C21 7.02991 16.9701 3 12 3C7.02991 3 3 7.02991 3 12C3 16.9701 7.02991 21 12 21ZM12.6429 16.3393C12.6429 16.4277 12.5705 16.5 12.4821 16.5H11.5179C11.4295 16.5 11.3571 16.4277 11.3571 16.3393L11.3571 10.875C11.3571 10.7866 11.4295 10.7143 11.5179 10.7143H12.4821C12.5705 10.7143 12.6429 10.7866 12.6429 10.875L12.6429 16.3393ZM12 7.5C12.5324 7.5 12.9643 7.93192 12.9643 8.46429C12.9643 8.99665 12.5324 9.42857 12 9.42857C11.4676 9.42857 11.0357 8.99665 11.0357 8.46429C11.0357 7.93192 11.4676 7.5 12 7.5Z" fill="#4050B5"/>
</g>
</g>
</g>
<defs>
<clipPath id="clip0_356_2198">
<rect width="24" height="24" fill="white"/>
</clipPath>
</defs>
</svg>
