<?xml version="1.0" encoding="utf-8"?>
<!-- Generator: Adobe Illustrator 26.0.0, SVG Export Plug-In . SVG Version: 6.00 Build 0)  -->
<svg version="1.1" id="Logo" xmlns="http://www.w3.org/2000/svg" xmlns:xlink="http://www.w3.org/1999/xlink" x="0px" y="0px"
	 viewBox="0 0 424 432" style="enable-background:new 0 0 424 432;" xml:space="preserve">
<style type="text/css">
	.st0{fill:#8092E4;}
	.st1{fill:#4154B2;}
</style>
<g>
	<g>
		<path class="st0" d="M155.85,78.6c-7.09-7.09-18.62-7.09-25.71,0l-49.38,49.37c-7.09,7.09-7.09,18.62,0,25.71
			c3.54,3.55,8.2,5.32,12.86,5.32s9.31-1.77,12.86-5.32l49.38-49.37C162.94,97.22,162.94,85.68,155.85,78.6z"/>
		<path class="st0" d="M218.32,103.53c-7.09-7.09-18.63-7.08-25.71,0l-86.93,86.93c-3.44,3.43-5.32,8-5.32,12.86
			c0,4.86,1.89,9.43,5.33,12.86c3.54,3.54,8.2,5.31,12.85,5.31c4.66,0,9.31-1.77,12.86-5.32l86.93-86.93
			C225.42,122.16,225.41,110.62,218.32,103.53z M107.59,214.28L107.59,214.28L107.59,214.28L107.59,214.28z"/>
		<path class="st1" d="M340.83,48.28l-33.34,4.4c-3.86,0-7.26,2.32-8.66,5.92c-1.4,3.6-0.47,7.61,2.37,10.22l7.35,6.76
			L150.27,233.86c-3.36,3.36-5.21,7.83-5.21,12.58s1.85,9.22,5.21,12.58c3.47,3.47,8.02,5.2,12.58,5.2c4.55,0,9.11-1.73,12.58-5.2
			L334.76,99.68l3.87,3.56c2.76,2.53,6.6,3.17,10.03,1.67c3.43-1.5,5.56-4.77,5.54-8.18l4.43-30.67
			C358.62,56.26,350.64,48.28,340.83,48.28z"/>
	</g>
	<path class="st1" d="M389.71,167.11l-35.89-35.89c-7.06-7.06-18.55-7.06-25.61,0c-3.42,3.42-5.31,7.97-5.31,12.81
		c0,4.84,1.89,9.39,5.31,12.81l35.89,35.89c4.05,4.05,6.28,9.43,6.28,15.16c0,5.73-2.23,11.11-6.28,15.16L230.76,356.38
		c-8.36,8.36-21.97,8.35-30.33,0L67.11,223.04c-4.05-4.04-6.28-9.42-6.28-15.15c0-5.73,2.23-11.11,6.28-15.16l2.55-2.55
		c3.42-3.42,5.31-7.97,5.31-12.81c0-4.84-1.89-9.39-5.31-12.81c-7.06-7.06-18.55-7.06-25.61,0l-2.55,2.55
		C30.6,178,24.6,192.48,24.6,207.88s6,29.89,16.89,40.78l133.33,133.33c10.87,10.88,25.35,16.86,40.77,16.86s29.91-5.99,40.78-16.86
		l133.33-133.33c10.89-10.89,16.89-25.37,16.89-40.78S400.6,178,389.71,167.11z"/>
</g>
</svg>
