<svg width="752" height="96" viewBox="0 0 752 96" fill="none" xmlns="http://www.w3.org/2000/svg">
<rect x="0.5" y="0.5" width="751" height="95" rx="3.5" stroke="black" stroke-opacity="0.1"/>
<path d="M30.4102 33.0801V34H25.8926V33.0801H30.4102ZM26.1211 25.4688V34H24.9902V25.4688H26.1211ZM29.8125 29.1367V30.0566H25.8926V29.1367H29.8125ZM30.3516 25.4688V26.3945H25.8926V25.4688H30.3516ZM32.5289 27.6602L33.9176 29.9688L35.3238 27.6602H36.5953L34.5211 30.7891L36.6598 34H35.4059L33.941 31.6211L32.4762 34H31.2164L33.3492 30.7891L31.2809 27.6602H32.5289ZM40.3195 33.2266C40.5773 33.2266 40.8156 33.1738 41.0344 33.0684C41.2531 32.9629 41.4328 32.8184 41.5734 32.6348C41.7141 32.4473 41.7941 32.2344 41.8137 31.9961H42.8449C42.8254 32.3711 42.6984 32.7207 42.4641 33.0449C42.2336 33.3652 41.9309 33.625 41.5559 33.8242C41.1809 34.0195 40.7688 34.1172 40.3195 34.1172C39.843 34.1172 39.427 34.0332 39.0715 33.8652C38.7199 33.6973 38.427 33.4668 38.1926 33.1738C37.9621 32.8809 37.7883 32.5449 37.6711 32.166C37.5578 31.7832 37.5012 31.3789 37.5012 30.9531V30.707C37.5012 30.2812 37.5578 29.8789 37.6711 29.5C37.7883 29.1172 37.9621 28.7793 38.1926 28.4863C38.427 28.1934 38.7199 27.9629 39.0715 27.7949C39.427 27.627 39.843 27.543 40.3195 27.543C40.8156 27.543 41.2492 27.6445 41.6203 27.8477C41.9914 28.0469 42.2824 28.3203 42.4934 28.668C42.7082 29.0117 42.8254 29.4023 42.8449 29.8398H41.8137C41.7941 29.5781 41.7199 29.3418 41.591 29.1309C41.466 28.9199 41.2941 28.752 41.0754 28.627C40.8605 28.498 40.6086 28.4336 40.3195 28.4336C39.9875 28.4336 39.7082 28.5 39.4816 28.6328C39.259 28.7617 39.0813 28.9375 38.9484 29.1602C38.8195 29.3789 38.7258 29.623 38.6672 29.8926C38.6125 30.1582 38.5852 30.4297 38.5852 30.707V30.9531C38.5852 31.2305 38.6125 31.5039 38.6672 31.7734C38.7219 32.043 38.8137 32.2871 38.9426 32.5059C39.0754 32.7246 39.2531 32.9004 39.4758 33.0332C39.7023 33.1621 39.9836 33.2266 40.3195 33.2266ZM45.3914 25V34H44.3016V25H45.3914ZM51.1605 32.5352V27.6602H52.2504V34H51.2133L51.1605 32.5352ZM51.3656 31.1992L51.8168 31.1875C51.8168 31.6094 51.7719 32 51.682 32.3594C51.5961 32.7148 51.4555 33.0234 51.2602 33.2852C51.0648 33.5469 50.809 33.752 50.4926 33.9004C50.1762 34.0449 49.7914 34.1172 49.3383 34.1172C49.0297 34.1172 48.7465 34.0723 48.4887 33.9824C48.2348 33.8926 48.016 33.7539 47.8324 33.5664C47.6488 33.3789 47.5063 33.1348 47.4047 32.834C47.307 32.5332 47.2582 32.1719 47.2582 31.75V27.6602H48.3422V31.7617C48.3422 32.0469 48.3734 32.2832 48.4359 32.4707C48.5023 32.6543 48.5902 32.8008 48.6996 32.9102C48.8129 33.0156 48.9379 33.0898 49.0746 33.1328C49.2152 33.1758 49.3598 33.1973 49.5082 33.1973C49.9691 33.1973 50.3344 33.1094 50.6039 32.9336C50.8734 32.7539 51.0668 32.5137 51.184 32.2129C51.3051 31.9082 51.3656 31.5703 51.3656 31.1992ZM58.0488 32.7695V25H59.1387V34H58.1426L58.0488 32.7695ZM53.7832 30.9004V30.7773C53.7832 30.293 53.8418 29.8535 53.959 29.459C54.0801 29.0605 54.25 28.7188 54.4688 28.4336C54.6914 28.1484 54.9551 27.9297 55.2598 27.7773C55.5684 27.6211 55.9121 27.543 56.291 27.543C56.6895 27.543 57.0371 27.6133 57.334 27.7539C57.6348 27.8906 57.8887 28.0918 58.0957 28.3574C58.3066 28.6191 58.4727 28.9355 58.5938 29.3066C58.7148 29.6777 58.7988 30.0977 58.8457 30.5664V31.1055C58.8027 31.5703 58.7188 31.9883 58.5938 32.3594C58.4727 32.7305 58.3066 33.0469 58.0957 33.3086C57.8887 33.5703 57.6348 33.7715 57.334 33.9121C57.0332 34.0488 56.6816 34.1172 56.2793 34.1172C55.9082 34.1172 55.5684 34.0371 55.2598 33.877C54.9551 33.7168 54.6914 33.4922 54.4688 33.2031C54.25 32.9141 54.0801 32.5742 53.959 32.1836C53.8418 31.7891 53.7832 31.3613 53.7832 30.9004ZM54.873 30.7773V30.9004C54.873 31.2168 54.9043 31.5137 54.9668 31.791C55.0332 32.0684 55.1348 32.3125 55.2715 32.5234C55.4082 32.7344 55.582 32.9004 55.793 33.0215C56.0039 33.1387 56.2559 33.1973 56.5488 33.1973C56.9082 33.1973 57.2031 33.1211 57.4336 32.9688C57.668 32.8164 57.8555 32.6152 57.9961 32.3652C58.1367 32.1152 58.2461 31.8438 58.3242 31.5508V30.1387C58.2773 29.9238 58.209 29.7168 58.1191 29.5176C58.0332 29.3145 57.9199 29.1348 57.7793 28.9785C57.6426 28.8184 57.4727 28.6914 57.2695 28.5977C57.0703 28.5039 56.834 28.457 56.5605 28.457C56.2637 28.457 56.0078 28.5195 55.793 28.6445C55.582 28.7656 55.4082 28.9336 55.2715 29.1484C55.1348 29.3594 55.0332 29.6055 54.9668 29.8867C54.9043 30.1641 54.873 30.4609 54.873 30.7773ZM63.607 34.1172C63.1656 34.1172 62.7652 34.043 62.4059 33.8945C62.0504 33.7422 61.7438 33.5293 61.4859 33.2559C61.232 32.9824 61.0367 32.6582 60.9 32.2832C60.7633 31.9082 60.6949 31.498 60.6949 31.0527V30.8066C60.6949 30.291 60.7711 29.832 60.9234 29.4297C61.0758 29.0234 61.2828 28.6797 61.5445 28.3984C61.8063 28.1172 62.1031 27.9043 62.4352 27.7598C62.7672 27.6152 63.1109 27.543 63.4664 27.543C63.9195 27.543 64.3102 27.6211 64.6383 27.7773C64.9703 27.9336 65.2418 28.1523 65.4527 28.4336C65.6637 28.7109 65.8199 29.0391 65.9215 29.418C66.023 29.793 66.0738 30.2031 66.0738 30.6484V31.1348H61.3395V30.25H64.9898V30.168C64.9742 29.8867 64.9156 29.6133 64.8141 29.3477C64.7164 29.082 64.5602 28.8633 64.3453 28.6914C64.1305 28.5195 63.8375 28.4336 63.4664 28.4336C63.2203 28.4336 62.9938 28.4863 62.7867 28.5918C62.5797 28.6934 62.402 28.8457 62.2535 29.0488C62.1051 29.252 61.9898 29.5 61.9078 29.793C61.8258 30.0859 61.7848 30.4238 61.7848 30.8066V31.0527C61.7848 31.3535 61.8258 31.6367 61.9078 31.9023C61.9938 32.1641 62.1168 32.3945 62.277 32.5938C62.441 32.793 62.6383 32.9492 62.8688 33.0625C63.1031 33.1758 63.3688 33.2324 63.6656 33.2324C64.0484 33.2324 64.3727 33.1543 64.6383 32.998C64.9039 32.8418 65.1363 32.6328 65.3355 32.3711L65.9918 32.8926C65.8551 33.0996 65.6813 33.2969 65.4703 33.4844C65.2594 33.6719 64.9996 33.8242 64.691 33.9414C64.3863 34.0586 64.025 34.1172 63.607 34.1172ZM72.2215 32.875L73.8504 27.6602H74.5652L74.4246 28.6973L72.7664 34H72.0691L72.2215 32.875ZM71.1258 27.6602L72.5145 32.9336L72.6141 34H71.8816L70.0418 27.6602H71.1258ZM76.1238 32.8926L77.448 27.6602H78.5262L76.6863 34H75.9598L76.1238 32.8926ZM74.7234 27.6602L76.3172 32.7871L76.4988 34H75.8074L74.1023 28.6855L73.9617 27.6602H74.7234ZM80.8734 25V34H79.7895V25H80.8734ZM80.6156 30.5898L80.1645 30.5723C80.1684 30.1387 80.2328 29.7383 80.3578 29.3711C80.4828 29 80.6586 28.6777 80.8852 28.4043C81.1117 28.1309 81.3812 27.9199 81.6937 27.7715C82.0102 27.6191 82.3598 27.543 82.7426 27.543C83.0551 27.543 83.3363 27.5859 83.5863 27.6719C83.8363 27.7539 84.0492 27.8867 84.225 28.0703C84.4047 28.2539 84.5414 28.4922 84.6352 28.7852C84.7289 29.0742 84.7758 29.4277 84.7758 29.8457V34H83.6859V29.834C83.6859 29.502 83.6371 29.2363 83.5395 29.0371C83.4418 28.834 83.2992 28.6875 83.1117 28.5977C82.9242 28.5039 82.6937 28.457 82.4203 28.457C82.1508 28.457 81.9047 28.5137 81.682 28.627C81.4633 28.7402 81.2738 28.8965 81.1137 29.0957C80.9574 29.2949 80.8344 29.5234 80.7445 29.7812C80.6586 30.0352 80.6156 30.3047 80.6156 30.5898ZM87.7266 27.6602V34H86.6367V27.6602H87.7266ZM86.5547 25.9785C86.5547 25.8027 86.6074 25.6543 86.7129 25.5332C86.8223 25.4121 86.9824 25.3516 87.1934 25.3516C87.4004 25.3516 87.5586 25.4121 87.668 25.5332C87.7812 25.6543 87.8379 25.8027 87.8379 25.9785C87.8379 26.1465 87.7812 26.291 87.668 26.4121C87.5586 26.5293 87.4004 26.5879 87.1934 26.5879C86.9824 26.5879 86.8223 26.5293 86.7129 26.4121C86.6074 26.291 86.5547 26.1465 86.5547 25.9785ZM92.1539 33.2266C92.4117 33.2266 92.65 33.1738 92.8688 33.0684C93.0875 32.9629 93.2672 32.8184 93.4078 32.6348C93.5484 32.4473 93.6285 32.2344 93.648 31.9961H94.6793C94.6598 32.3711 94.5328 32.7207 94.2984 33.0449C94.068 33.3652 93.7652 33.625 93.3902 33.8242C93.0152 34.0195 92.6031 34.1172 92.1539 34.1172C91.6773 34.1172 91.2613 34.0332 90.9059 33.8652C90.5543 33.6973 90.2613 33.4668 90.027 33.1738C89.7965 32.8809 89.6227 32.5449 89.5055 32.166C89.3922 31.7832 89.3355 31.3789 89.3355 30.9531V30.707C89.3355 30.2812 89.3922 29.8789 89.5055 29.5C89.6227 29.1172 89.7965 28.7793 90.027 28.4863C90.2613 28.1934 90.5543 27.9629 90.9059 27.7949C91.2613 27.627 91.6773 27.543 92.1539 27.543C92.65 27.543 93.0836 27.6445 93.4547 27.8477C93.8258 28.0469 94.1168 28.3203 94.3277 28.668C94.5426 29.0117 94.6598 29.4023 94.6793 29.8398H93.648C93.6285 29.5781 93.5543 29.3418 93.4254 29.1309C93.3004 28.9199 93.1285 28.752 92.9098 28.627C92.6949 28.498 92.443 28.4336 92.1539 28.4336C91.8219 28.4336 91.5426 28.5 91.316 28.6328C91.0934 28.7617 90.9156 28.9375 90.7828 29.1602C90.6539 29.3789 90.5602 29.623 90.5016 29.8926C90.4469 30.1582 90.4195 30.4297 90.4195 30.707V30.9531C90.4195 31.2305 90.4469 31.5039 90.5016 31.7734C90.5563 32.043 90.648 32.2871 90.777 32.5059C90.9098 32.7246 91.0875 32.9004 91.3102 33.0332C91.5367 33.1621 91.818 33.2266 92.1539 33.2266ZM97.132 25V34H96.048V25H97.132ZM96.8742 30.5898L96.423 30.5723C96.427 30.1387 96.4914 29.7383 96.6164 29.3711C96.7414 29 96.9172 28.6777 97.1438 28.4043C97.3703 28.1309 97.6398 27.9199 97.9523 27.7715C98.2688 27.6191 98.6184 27.543 99.0012 27.543C99.3137 27.543 99.5949 27.5859 99.8449 27.6719C100.095 27.7539 100.308 27.8867 100.484 28.0703C100.663 28.2539 100.8 28.4922 100.894 28.7852C100.988 29.0742 101.034 29.4277 101.034 29.8457V34H99.9445V29.834C99.9445 29.502 99.8957 29.2363 99.798 29.0371C99.7004 28.834 99.5578 28.6875 99.3703 28.5977C99.1828 28.5039 98.9523 28.457 98.6789 28.457C98.4094 28.457 98.1633 28.5137 97.9406 28.627C97.7219 28.7402 97.5324 28.8965 97.3723 29.0957C97.216 29.2949 97.093 29.5234 97.0031 29.7812C96.9172 30.0352 96.8742 30.3047 96.8742 30.5898ZM109.625 32.3184C109.625 32.1621 109.59 32.0176 109.52 31.8848C109.454 31.748 109.315 31.625 109.104 31.5156C108.897 31.4023 108.584 31.3047 108.166 31.2227C107.815 31.1484 107.496 31.0605 107.211 30.959C106.93 30.8574 106.69 30.7344 106.491 30.5898C106.295 30.4453 106.145 30.2754 106.039 30.0801C105.934 29.8848 105.881 29.6562 105.881 29.3945C105.881 29.1445 105.936 28.9082 106.045 28.6855C106.159 28.4629 106.317 28.2656 106.52 28.0938C106.727 27.9219 106.975 27.7871 107.264 27.6895C107.553 27.5918 107.875 27.543 108.231 27.543C108.739 27.543 109.172 27.6328 109.532 27.8125C109.891 27.9922 110.166 28.2324 110.358 28.5332C110.549 28.8301 110.645 29.1602 110.645 29.5234H109.561C109.561 29.3477 109.508 29.1777 109.403 29.0137C109.301 28.8457 109.151 28.707 108.952 28.5977C108.756 28.4883 108.516 28.4336 108.231 28.4336C107.93 28.4336 107.686 28.4805 107.498 28.5742C107.315 28.6641 107.18 28.7793 107.094 28.9199C107.012 29.0605 106.971 29.209 106.971 29.3652C106.971 29.4824 106.991 29.5879 107.03 29.6816C107.073 29.7715 107.147 29.8555 107.252 29.9336C107.358 30.0078 107.506 30.0781 107.698 30.1445C107.889 30.2109 108.133 30.2773 108.43 30.3438C108.95 30.4609 109.377 30.6016 109.713 30.7656C110.049 30.9297 110.299 31.1309 110.463 31.3691C110.627 31.6074 110.709 31.8965 110.709 32.2363C110.709 32.5137 110.651 32.7676 110.534 32.998C110.42 33.2285 110.254 33.4277 110.036 33.5957C109.821 33.7598 109.563 33.8887 109.262 33.9824C108.965 34.0723 108.631 34.1172 108.26 34.1172C107.702 34.1172 107.229 34.0176 106.842 33.8184C106.455 33.6191 106.162 33.3613 105.963 33.0449C105.764 32.7285 105.664 32.3945 105.664 32.043H106.754C106.77 32.3398 106.856 32.5762 107.012 32.752C107.168 32.9238 107.36 33.0469 107.586 33.1211C107.813 33.1914 108.037 33.2266 108.26 33.2266C108.557 33.2266 108.805 33.1875 109.004 33.1094C109.207 33.0312 109.362 32.9238 109.467 32.7871C109.573 32.6504 109.625 32.4941 109.625 32.3184ZM114.938 27.6602V28.4922H111.51V27.6602H114.938ZM112.67 26.1191H113.754V32.4297C113.754 32.6445 113.787 32.8066 113.854 32.916C113.92 33.0254 114.006 33.0977 114.111 33.1328C114.217 33.168 114.33 33.1855 114.451 33.1855C114.541 33.1855 114.635 33.1777 114.732 33.1621C114.834 33.1426 114.91 33.127 114.961 33.1152L114.967 34C114.881 34.0273 114.768 34.0527 114.627 34.0762C114.49 34.1035 114.324 34.1172 114.129 34.1172C113.863 34.1172 113.619 34.0645 113.396 33.959C113.174 33.8535 112.996 33.6777 112.863 33.4316C112.734 33.1816 112.67 32.8457 112.67 32.4238V26.1191ZM120.097 32.916V29.6523C120.097 29.4023 120.046 29.1855 119.945 29.002C119.847 28.8145 119.699 28.6699 119.5 28.5684C119.3 28.4668 119.054 28.416 118.761 28.416C118.488 28.416 118.248 28.4629 118.041 28.5566C117.838 28.6504 117.677 28.7734 117.56 28.9258C117.447 29.0781 117.39 29.2422 117.39 29.418H116.306C116.306 29.1914 116.365 28.9668 116.482 28.7441C116.599 28.5215 116.767 28.3203 116.986 28.1406C117.209 27.957 117.474 27.8125 117.783 27.707C118.095 27.5977 118.443 27.543 118.826 27.543C119.287 27.543 119.693 27.6211 120.045 27.7773C120.4 27.9336 120.677 28.1699 120.877 28.4863C121.08 28.7988 121.181 29.1914 121.181 29.6641V32.6172C121.181 32.8281 121.199 33.0527 121.234 33.291C121.273 33.5293 121.33 33.7344 121.404 33.9062V34H120.273C120.218 33.875 120.175 33.709 120.144 33.502C120.113 33.291 120.097 33.0957 120.097 32.916ZM120.285 30.1562L120.296 30.918H119.201C118.892 30.918 118.617 30.9434 118.375 30.9941C118.132 31.041 117.929 31.1133 117.765 31.2109C117.601 31.3086 117.476 31.4316 117.39 31.5801C117.304 31.7246 117.261 31.8945 117.261 32.0898C117.261 32.2891 117.306 32.4707 117.396 32.6348C117.486 32.7988 117.621 32.9297 117.8 33.0273C117.984 33.1211 118.209 33.168 118.474 33.168C118.806 33.168 119.099 33.0977 119.353 32.957C119.607 32.8164 119.808 32.6445 119.957 32.4414C120.109 32.2383 120.191 32.041 120.203 31.8496L120.666 32.3711C120.638 32.5352 120.564 32.7168 120.443 32.916C120.322 33.1152 120.16 33.3066 119.957 33.4902C119.757 33.6699 119.519 33.8203 119.242 33.9414C118.968 34.0586 118.66 34.1172 118.316 34.1172C117.886 34.1172 117.509 34.0332 117.185 33.8652C116.865 33.6973 116.615 33.4727 116.435 33.1914C116.259 32.9062 116.171 32.5879 116.171 32.2363C116.171 31.8965 116.238 31.5977 116.371 31.3398C116.504 31.0781 116.695 30.8613 116.945 30.6895C117.195 30.5137 117.496 30.3809 117.847 30.291C118.199 30.2012 118.591 30.1562 119.025 30.1562H120.285ZM125.691 27.6602V28.4922H122.263V27.6602H125.691ZM123.423 26.1191H124.507V32.4297C124.507 32.6445 124.54 32.8066 124.607 32.916C124.673 33.0254 124.759 33.0977 124.864 33.1328C124.97 33.168 125.083 33.1855 125.204 33.1855C125.294 33.1855 125.388 33.1777 125.486 33.1621C125.587 33.1426 125.663 33.127 125.714 33.1152L125.72 34C125.634 34.0273 125.521 34.0527 125.38 34.0762C125.243 34.1035 125.077 34.1172 124.882 34.1172C124.616 34.1172 124.372 34.0645 124.15 33.959C123.927 33.8535 123.749 33.6777 123.616 33.4316C123.488 33.1816 123.423 32.8457 123.423 32.4238V26.1191ZM129.743 34.1172C129.302 34.1172 128.901 34.043 128.542 33.8945C128.186 33.7422 127.88 33.5293 127.622 33.2559C127.368 32.9824 127.173 32.6582 127.036 32.2832C126.899 31.9082 126.831 31.498 126.831 31.0527V30.8066C126.831 30.291 126.907 29.832 127.059 29.4297C127.212 29.0234 127.419 28.6797 127.68 28.3984C127.942 28.1172 128.239 27.9043 128.571 27.7598C128.903 27.6152 129.247 27.543 129.602 27.543C130.055 27.543 130.446 27.6211 130.774 27.7773C131.106 27.9336 131.378 28.1523 131.589 28.4336C131.8 28.7109 131.956 29.0391 132.057 29.418C132.159 29.793 132.21 30.2031 132.21 30.6484V31.1348H127.475V30.25H131.126V30.168C131.11 29.8867 131.052 29.6133 130.95 29.3477C130.852 29.082 130.696 28.8633 130.481 28.6914C130.266 28.5195 129.973 28.4336 129.602 28.4336C129.356 28.4336 129.13 28.4863 128.923 28.5918C128.716 28.6934 128.538 28.8457 128.389 29.0488C128.241 29.252 128.126 29.5 128.044 29.793C127.962 30.0859 127.921 30.4238 127.921 30.8066V31.0527C127.921 31.3535 127.962 31.6367 128.044 31.9023C128.13 32.1641 128.253 32.3945 128.413 32.5938C128.577 32.793 128.774 32.9492 129.005 33.0625C129.239 33.1758 129.505 33.2324 129.802 33.2324C130.184 33.2324 130.509 33.1543 130.774 32.998C131.04 32.8418 131.272 32.6328 131.471 32.3711L132.128 32.8926C131.991 33.0996 131.817 33.2969 131.606 33.4844C131.395 33.6719 131.136 33.8242 130.827 33.9414C130.522 34.0586 130.161 34.1172 129.743 34.1172ZM137.317 32.3184C137.317 32.1621 137.282 32.0176 137.211 31.8848C137.145 31.748 137.006 31.625 136.795 31.5156C136.588 31.4023 136.276 31.3047 135.858 31.2227C135.506 31.1484 135.188 31.0605 134.903 30.959C134.621 30.8574 134.381 30.7344 134.182 30.5898C133.987 30.4453 133.836 30.2754 133.731 30.0801C133.625 29.8848 133.573 29.6562 133.573 29.3945C133.573 29.1445 133.627 28.9082 133.737 28.6855C133.85 28.4629 134.008 28.2656 134.211 28.0938C134.418 27.9219 134.666 27.7871 134.955 27.6895C135.245 27.5918 135.567 27.543 135.922 27.543C136.43 27.543 136.864 27.6328 137.223 27.8125C137.582 27.9922 137.858 28.2324 138.049 28.5332C138.241 28.8301 138.336 29.1602 138.336 29.5234H137.252C137.252 29.3477 137.2 29.1777 137.094 29.0137C136.993 28.8457 136.842 28.707 136.643 28.5977C136.448 28.4883 136.207 28.4336 135.922 28.4336C135.621 28.4336 135.377 28.4805 135.19 28.5742C135.006 28.6641 134.871 28.7793 134.786 28.9199C134.704 29.0605 134.662 29.209 134.662 29.3652C134.662 29.4824 134.682 29.5879 134.721 29.6816C134.764 29.7715 134.838 29.8555 134.944 29.9336C135.049 30.0078 135.198 30.0781 135.389 30.1445C135.58 30.2109 135.825 30.2773 136.121 30.3438C136.641 30.4609 137.069 30.6016 137.405 30.7656C137.741 30.9297 137.991 31.1309 138.155 31.3691C138.319 31.6074 138.401 31.8965 138.401 32.2363C138.401 32.5137 138.342 32.7676 138.225 32.998C138.112 33.2285 137.946 33.4277 137.727 33.5957C137.512 33.7598 137.254 33.8887 136.954 33.9824C136.657 34.0723 136.323 34.1172 135.952 34.1172C135.393 34.1172 134.92 34.0176 134.534 33.8184C134.147 33.6191 133.854 33.3613 133.655 33.0449C133.455 32.7285 133.356 32.3945 133.356 32.043H134.446C134.461 32.3398 134.547 32.5762 134.704 32.752C134.86 32.9238 135.051 33.0469 135.278 33.1211C135.504 33.1914 135.729 33.2266 135.952 33.2266C136.248 33.2266 136.496 33.1875 136.696 33.1094C136.899 33.0312 137.053 32.9238 137.159 32.7871C137.264 32.6504 137.317 32.4941 137.317 32.3184ZM143.06 30.5898V30.5312C143.06 29.6797 143.156 28.9102 143.347 28.2227C143.539 27.5312 143.783 26.9258 144.08 26.4062C144.377 25.8867 144.689 25.457 145.017 25.1172C145.345 24.7734 145.648 24.5254 145.925 24.373L146.154 25.0879C145.923 25.2637 145.689 25.5059 145.451 25.8145C145.216 26.123 145 26.502 144.8 26.9512C144.605 27.4004 144.447 27.9219 144.326 28.5156C144.205 29.1094 144.144 29.7773 144.144 30.5195V30.6016C144.144 31.3438 144.205 32.0137 144.326 32.6113C144.447 33.2051 144.605 33.7285 144.8 34.1816C145 34.6348 145.216 35.0195 145.451 35.3359C145.689 35.6562 145.923 35.9102 146.154 36.0977L145.925 36.7539C145.648 36.6016 145.345 36.3535 145.017 36.0098C144.689 35.6699 144.377 35.2402 144.08 34.7207C143.783 34.2051 143.539 33.6016 143.347 32.9102C143.156 32.2188 143.06 31.4453 143.06 30.5898ZM147.077 30.9004V30.7656C147.077 30.3086 147.144 29.8848 147.277 29.4941C147.409 29.0996 147.601 28.7578 147.851 28.4688C148.101 28.1758 148.404 27.9492 148.759 27.7891C149.114 27.625 149.513 27.543 149.954 27.543C150.4 27.543 150.8 27.625 151.155 27.7891C151.515 27.9492 151.82 28.1758 152.07 28.4688C152.323 28.7578 152.517 29.0996 152.65 29.4941C152.782 29.8848 152.849 30.3086 152.849 30.7656V30.9004C152.849 31.3574 152.782 31.7812 152.65 32.1719C152.517 32.5625 152.323 32.9043 152.07 33.1973C151.82 33.4863 151.517 33.7129 151.161 33.877C150.81 34.0371 150.411 34.1172 149.966 34.1172C149.521 34.1172 149.12 34.0371 148.765 33.877C148.409 33.7129 148.105 33.4863 147.851 33.1973C147.601 32.9043 147.409 32.5625 147.277 32.1719C147.144 31.7812 147.077 31.3574 147.077 30.9004ZM148.161 30.7656V30.9004C148.161 31.2168 148.198 31.5156 148.273 31.7969C148.347 32.0742 148.458 32.3203 148.607 32.5352C148.759 32.75 148.948 32.9199 149.175 33.0449C149.402 33.166 149.665 33.2266 149.966 33.2266C150.263 33.2266 150.523 33.166 150.745 33.0449C150.972 32.9199 151.159 32.75 151.308 32.5352C151.456 32.3203 151.568 32.0742 151.642 31.7969C151.72 31.5156 151.759 31.2168 151.759 30.9004V30.7656C151.759 30.4531 151.72 30.1582 151.642 29.8809C151.568 29.5996 151.454 29.3516 151.302 29.1367C151.154 28.918 150.966 28.7461 150.739 28.6211C150.517 28.4961 150.255 28.4336 149.954 28.4336C149.657 28.4336 149.396 28.4961 149.169 28.6211C148.946 28.7461 148.759 28.918 148.607 29.1367C148.458 29.3516 148.347 29.5996 148.273 29.8809C148.198 30.1582 148.161 30.4531 148.161 30.7656ZM155.442 28.8789V36.4375H154.352V27.6602H155.348L155.442 28.8789ZM159.714 30.7773V30.9004C159.714 31.3613 159.659 31.7891 159.55 32.1836C159.44 32.5742 159.28 32.9141 159.069 33.2031C158.862 33.4922 158.606 33.7168 158.302 33.877C157.997 34.0371 157.647 34.1172 157.253 34.1172C156.85 34.1172 156.495 34.0508 156.186 33.918C155.878 33.7852 155.616 33.5918 155.401 33.3379C155.186 33.084 155.014 32.7793 154.886 32.4238C154.761 32.0684 154.675 31.668 154.628 31.2227V30.5664C154.675 30.0977 154.762 29.6777 154.891 29.3066C155.02 28.9355 155.19 28.6191 155.401 28.3574C155.616 28.0918 155.876 27.8906 156.18 27.7539C156.485 27.6133 156.837 27.543 157.235 27.543C157.634 27.543 157.987 27.6211 158.296 27.7773C158.604 27.9297 158.864 28.1484 159.075 28.4336C159.286 28.7188 159.444 29.0605 159.55 29.459C159.659 29.8535 159.714 30.293 159.714 30.7773ZM158.624 30.9004V30.7773C158.624 30.4609 158.591 30.1641 158.524 29.8867C158.458 29.6055 158.354 29.3594 158.214 29.1484C158.077 28.9336 157.901 28.7656 157.686 28.6445C157.471 28.5195 157.216 28.457 156.919 28.457C156.645 28.457 156.407 28.5039 156.204 28.5977C156.005 28.6914 155.835 28.8184 155.694 28.9785C155.554 29.1348 155.438 29.3145 155.348 29.5176C155.262 29.7168 155.198 29.9238 155.155 30.1387V31.6562C155.233 31.9297 155.343 32.1875 155.483 32.4297C155.624 32.668 155.811 32.8613 156.046 33.0098C156.28 33.1543 156.575 33.2266 156.93 33.2266C157.223 33.2266 157.475 33.166 157.686 33.0449C157.901 32.9199 158.077 32.75 158.214 32.5352C158.354 32.3203 158.458 32.0742 158.524 31.7969C158.591 31.5156 158.624 31.2168 158.624 30.9004ZM163.901 27.6602V28.4922H160.473V27.6602H163.901ZM161.633 26.1191H162.717V32.4297C162.717 32.6445 162.75 32.8066 162.817 32.916C162.883 33.0254 162.969 33.0977 163.075 33.1328C163.18 33.168 163.293 33.1855 163.414 33.1855C163.504 33.1855 163.598 33.1777 163.696 33.1621C163.797 33.1426 163.873 33.127 163.924 33.1152L163.93 34C163.844 34.0273 163.731 34.0527 163.59 34.0762C163.454 34.1035 163.288 34.1172 163.092 34.1172C162.827 34.1172 162.582 34.0645 162.36 33.959C162.137 33.8535 161.959 33.6777 161.827 33.4316C161.698 33.1816 161.633 32.8457 161.633 32.4238V26.1191ZM166.5 27.6602V34H165.41V27.6602H166.5ZM165.328 25.9785C165.328 25.8027 165.381 25.6543 165.486 25.5332C165.596 25.4121 165.756 25.3516 165.967 25.3516C166.174 25.3516 166.332 25.4121 166.441 25.5332C166.555 25.6543 166.611 25.8027 166.611 25.9785C166.611 26.1465 166.555 26.291 166.441 26.4121C166.332 26.5293 166.174 26.5879 165.967 26.5879C165.756 26.5879 165.596 26.5293 165.486 26.4121C165.381 26.291 165.328 26.1465 165.328 25.9785ZM168.103 30.9004V30.7656C168.103 30.3086 168.17 29.8848 168.302 29.4941C168.435 29.0996 168.627 28.7578 168.877 28.4688C169.127 28.1758 169.429 27.9492 169.785 27.7891C170.14 27.625 170.539 27.543 170.98 27.543C171.425 27.543 171.826 27.625 172.181 27.7891C172.541 27.9492 172.845 28.1758 173.095 28.4688C173.349 28.7578 173.543 29.0996 173.675 29.4941C173.808 29.8848 173.875 30.3086 173.875 30.7656V30.9004C173.875 31.3574 173.808 31.7812 173.675 32.1719C173.543 32.5625 173.349 32.9043 173.095 33.1973C172.845 33.4863 172.543 33.7129 172.187 33.877C171.836 34.0371 171.437 34.1172 170.992 34.1172C170.546 34.1172 170.146 34.0371 169.791 33.877C169.435 33.7129 169.13 33.4863 168.877 33.1973C168.627 32.9043 168.435 32.5625 168.302 32.1719C168.17 31.7812 168.103 31.3574 168.103 30.9004ZM169.187 30.7656V30.9004C169.187 31.2168 169.224 31.5156 169.298 31.7969C169.373 32.0742 169.484 32.3203 169.632 32.5352C169.785 32.75 169.974 32.9199 170.201 33.0449C170.427 33.166 170.691 33.2266 170.992 33.2266C171.289 33.2266 171.548 33.166 171.771 33.0449C171.998 32.9199 172.185 32.75 172.334 32.5352C172.482 32.3203 172.593 32.0742 172.668 31.7969C172.746 31.5156 172.785 31.2168 172.785 30.9004V30.7656C172.785 30.4531 172.746 30.1582 172.668 29.8809C172.593 29.5996 172.48 29.3516 172.328 29.1367C172.179 28.918 171.992 28.7461 171.765 28.6211C171.543 28.4961 171.281 28.4336 170.98 28.4336C170.683 28.4336 170.421 28.4961 170.195 28.6211C169.972 28.7461 169.785 28.918 169.632 29.1367C169.484 29.3516 169.373 29.5996 169.298 29.8809C169.224 30.1582 169.187 30.4531 169.187 30.7656ZM176.468 29.0137V34H175.384V27.6602H176.409L176.468 29.0137ZM176.21 30.5898L175.759 30.5723C175.763 30.1387 175.827 29.7383 175.952 29.3711C176.077 29 176.253 28.6777 176.48 28.4043C176.706 28.1309 176.976 27.9199 177.288 27.7715C177.605 27.6191 177.954 27.543 178.337 27.543C178.65 27.543 178.931 27.5859 179.181 27.6719C179.431 27.7539 179.644 27.8867 179.82 28.0703C179.999 28.2539 180.136 28.4922 180.23 28.7852C180.323 29.0742 180.37 29.4277 180.37 29.8457V34H179.28V29.834C179.28 29.502 179.232 29.2363 179.134 29.0371C179.036 28.834 178.894 28.6875 178.706 28.5977C178.519 28.5039 178.288 28.457 178.015 28.457C177.745 28.457 177.499 28.5137 177.277 28.627C177.058 28.7402 176.868 28.8965 176.708 29.0957C176.552 29.2949 176.429 29.5234 176.339 29.7812C176.253 30.0352 176.21 30.3047 176.21 30.5898ZM185.905 32.916V29.6523C185.905 29.4023 185.854 29.1855 185.753 29.002C185.655 28.8145 185.507 28.6699 185.307 28.5684C185.108 28.4668 184.862 28.416 184.569 28.416C184.296 28.416 184.055 28.4629 183.848 28.5566C183.645 28.6504 183.485 28.7734 183.368 28.9258C183.255 29.0781 183.198 29.2422 183.198 29.418H182.114C182.114 29.1914 182.173 28.9668 182.29 28.7441C182.407 28.5215 182.575 28.3203 182.794 28.1406C183.016 27.957 183.282 27.8125 183.591 27.707C183.903 27.5977 184.251 27.543 184.634 27.543C185.095 27.543 185.501 27.6211 185.852 27.7773C186.208 27.9336 186.485 28.1699 186.684 28.4863C186.887 28.7988 186.989 29.1914 186.989 29.6641V32.6172C186.989 32.8281 187.007 33.0527 187.042 33.291C187.081 33.5293 187.137 33.7344 187.212 33.9062V34H186.081C186.026 33.875 185.983 33.709 185.952 33.502C185.921 33.291 185.905 33.0957 185.905 32.916ZM186.093 30.1562L186.104 30.918H185.009C184.7 30.918 184.425 30.9434 184.182 30.9941C183.94 31.041 183.737 31.1133 183.573 31.2109C183.409 31.3086 183.284 31.4316 183.198 31.5801C183.112 31.7246 183.069 31.8945 183.069 32.0898C183.069 32.2891 183.114 32.4707 183.204 32.6348C183.294 32.7988 183.429 32.9297 183.608 33.0273C183.792 33.1211 184.016 33.168 184.282 33.168C184.614 33.168 184.907 33.0977 185.161 32.957C185.415 32.8164 185.616 32.6445 185.764 32.4414C185.917 32.2383 185.999 32.041 186.011 31.8496L186.473 32.3711C186.446 32.5352 186.372 32.7168 186.251 32.916C186.13 33.1152 185.968 33.3066 185.764 33.4902C185.565 33.6699 185.327 33.8203 185.05 33.9414C184.776 34.0586 184.468 34.1172 184.124 34.1172C183.694 34.1172 183.317 34.0332 182.993 33.8652C182.673 33.6973 182.423 33.4727 182.243 33.1914C182.067 32.9062 181.979 32.5879 181.979 32.2363C181.979 31.8965 182.046 31.5977 182.179 31.3398C182.311 31.0781 182.503 30.8613 182.753 30.6895C183.003 30.5137 183.304 30.3809 183.655 30.291C184.007 30.2012 184.399 30.1562 184.833 30.1562H186.093ZM190.022 25V34H188.932V25H190.022ZM194.408 30.5312V30.5898C194.408 31.4453 194.312 32.2188 194.121 32.9102C193.93 33.6016 193.686 34.2051 193.389 34.7207C193.092 35.2402 192.779 35.6699 192.451 36.0098C192.123 36.3535 191.82 36.6016 191.543 36.7539L191.314 36.0977C191.545 35.9219 191.777 35.6758 192.012 35.3594C192.246 35.0469 192.463 34.6602 192.662 34.1992C192.861 33.7422 193.021 33.2148 193.143 32.6172C193.264 32.0156 193.324 31.3438 193.324 30.6016V30.5195C193.324 29.7773 193.26 29.1074 193.131 28.5098C193.002 27.9082 192.834 27.3789 192.627 26.9219C192.424 26.4648 192.205 26.0801 191.971 25.7676C191.74 25.4512 191.521 25.207 191.314 25.0352L191.543 24.373C191.82 24.5254 192.123 24.7734 192.451 25.1172C192.779 25.457 193.092 25.8867 193.389 26.4062C193.686 26.9258 193.93 27.5312 194.121 28.2227C194.312 28.9102 194.408 29.6797 194.408 30.5312Z" fill="black" fill-opacity="0.6"/>
<g clip-path="url(#clip0_2593_5632)">
<path d="M28.3125 55.5625L30.5703 47.625H31.6641L31.0312 50.7109L28.6016 59H27.5156L28.3125 55.5625ZM25.9766 47.625L27.7734 55.4062L28.3125 59H27.2344L24.4766 47.625H25.9766ZM34.5859 55.3984L36.3438 47.625H37.8516L35.1016 59H34.0234L34.5859 55.3984ZM31.8281 47.625L34.0234 55.5625L34.8203 59H33.7344L31.3906 50.7109L30.75 47.625H31.8281ZM44.1734 57.5547V53.2031C44.1734 52.8698 44.1057 52.5807 43.9703 52.3359C43.8401 52.0859 43.6422 51.8932 43.3766 51.7578C43.1109 51.6224 42.7828 51.5547 42.3922 51.5547C42.0276 51.5547 41.7073 51.6172 41.4312 51.7422C41.1604 51.8672 40.9469 52.0312 40.7906 52.2344C40.6396 52.4375 40.5641 52.6562 40.5641 52.8906H39.1187C39.1187 52.5885 39.1969 52.2891 39.3531 51.9922C39.5094 51.6953 39.7333 51.4271 40.025 51.1875C40.3219 50.9427 40.676 50.75 41.0875 50.6094C41.5042 50.4635 41.9677 50.3906 42.4781 50.3906C43.0927 50.3906 43.6344 50.4948 44.1031 50.7031C44.5771 50.9115 44.9469 51.2266 45.2125 51.6484C45.4833 52.0651 45.6187 52.5885 45.6187 53.2188V57.1562C45.6187 57.4375 45.6422 57.737 45.6891 58.0547C45.7411 58.3724 45.8167 58.6458 45.9156 58.875V59H44.4078C44.3349 58.8333 44.2776 58.612 44.2359 58.3359C44.1943 58.0547 44.1734 57.7943 44.1734 57.5547ZM44.4234 53.875L44.4391 54.8906H42.9781C42.5667 54.8906 42.1995 54.9245 41.8766 54.9922C41.5536 55.0547 41.2828 55.151 41.0641 55.2812C40.8453 55.4115 40.6786 55.5755 40.5641 55.7734C40.4495 55.9661 40.3922 56.1927 40.3922 56.4531C40.3922 56.7188 40.4521 56.9609 40.5719 57.1797C40.6917 57.3984 40.8714 57.5729 41.1109 57.7031C41.3557 57.8281 41.6552 57.8906 42.0094 57.8906C42.4521 57.8906 42.8427 57.7969 43.1812 57.6094C43.5198 57.4219 43.788 57.1927 43.9859 56.9219C44.1891 56.651 44.2984 56.388 44.3141 56.1328L44.9312 56.8281C44.8948 57.0469 44.7958 57.2891 44.6344 57.5547C44.4729 57.8203 44.2568 58.0755 43.9859 58.3203C43.7203 58.5599 43.4026 58.7604 43.0328 58.9219C42.6682 59.0781 42.2568 59.1562 41.7984 59.1562C41.2255 59.1562 40.7229 59.0443 40.2906 58.8203C39.8635 58.5964 39.5302 58.2969 39.2906 57.9219C39.0562 57.5417 38.9391 57.1172 38.9391 56.6484C38.9391 56.1953 39.0276 55.7969 39.2047 55.4531C39.3818 55.1042 39.637 54.8151 39.9703 54.5859C40.3036 54.3516 40.7047 54.1745 41.1734 54.0547C41.6422 53.9349 42.1656 53.875 42.7437 53.875H44.4234ZM49.6125 50.5469V59H48.1594V50.5469H49.6125ZM48.05 48.3047C48.05 48.0703 48.1203 47.8724 48.2609 47.7109C48.4068 47.5495 48.6203 47.4688 48.9016 47.4688C49.1776 47.4688 49.3885 47.5495 49.5344 47.7109C49.6854 47.8724 49.7609 48.0703 49.7609 48.3047C49.7609 48.5286 49.6854 48.7214 49.5344 48.8828C49.3885 49.0391 49.1776 49.1172 48.9016 49.1172C48.6203 49.1172 48.4068 49.0391 48.2609 48.8828C48.1203 48.7214 48.05 48.5286 48.05 48.3047ZM55.6219 50.5469V51.6562H51.0516V50.5469H55.6219ZM52.5984 48.4922H54.0438V56.9062C54.0438 57.1927 54.088 57.4089 54.1766 57.5547C54.2651 57.7005 54.3797 57.7969 54.5203 57.8438C54.6609 57.8906 54.812 57.9141 54.9734 57.9141C55.0932 57.9141 55.2182 57.9036 55.3484 57.8828C55.4839 57.8568 55.5854 57.8359 55.6531 57.8203L55.6609 59C55.5464 59.0365 55.3953 59.0703 55.2078 59.1016C55.0255 59.138 54.8042 59.1562 54.5438 59.1562C54.1896 59.1562 53.8641 59.0859 53.5672 58.9453C53.2703 58.8047 53.0333 58.5703 52.8563 58.2422C52.6844 57.9089 52.5984 57.4609 52.5984 56.8984V48.4922ZM59.0375 50.5469V59H57.5844V50.5469H59.0375ZM57.475 48.3047C57.475 48.0703 57.5453 47.8724 57.6859 47.7109C57.8318 47.5495 58.0453 47.4688 58.3266 47.4688C58.6026 47.4688 58.8135 47.5495 58.9594 47.7109C59.1104 47.8724 59.1859 48.0703 59.1859 48.3047C59.1859 48.5286 59.1104 48.7214 58.9594 48.8828C58.8135 49.0391 58.6026 49.1172 58.3266 49.1172C58.0453 49.1172 57.8318 49.0391 57.6859 48.8828C57.5453 48.7214 57.475 48.5286 57.475 48.3047ZM62.9531 52.3516V59H61.5078V50.5469H62.875L62.9531 52.3516ZM62.6094 54.4531L62.0078 54.4297C62.013 53.8516 62.099 53.3177 62.2656 52.8281C62.4323 52.3333 62.6667 51.9036 62.9688 51.5391C63.2708 51.1745 63.6302 50.8932 64.0469 50.6953C64.4688 50.4922 64.9349 50.3906 65.4453 50.3906C65.862 50.3906 66.237 50.4479 66.5703 50.5625C66.9036 50.6719 67.1875 50.849 67.4219 51.0938C67.6615 51.3385 67.8438 51.6562 67.9688 52.0469C68.0938 52.4323 68.1562 52.9036 68.1562 53.4609V59H66.7031V53.4453C66.7031 53.0026 66.638 52.6484 66.5078 52.3828C66.3776 52.112 66.1875 51.9167 65.9375 51.7969C65.6875 51.6719 65.3802 51.6094 65.0156 51.6094C64.6562 51.6094 64.3281 51.6849 64.0312 51.8359C63.7396 51.987 63.487 52.1953 63.2734 52.4609C63.0651 52.7266 62.901 53.0312 62.7812 53.375C62.6667 53.7135 62.6094 54.0729 62.6094 54.4531ZM75.9781 50.5469H77.2906V58.8203C77.2906 59.5651 77.1396 60.2005 76.8375 60.7266C76.5354 61.2526 76.1135 61.651 75.5719 61.9219C75.0354 62.1979 74.4156 62.3359 73.7125 62.3359C73.4208 62.3359 73.0771 62.2891 72.6813 62.1953C72.2906 62.1068 71.9052 61.9531 71.525 61.7344C71.15 61.5208 70.8349 61.2318 70.5797 60.8672L71.3375 60.0078C71.6917 60.4349 72.0615 60.7318 72.4469 60.8984C72.8375 61.0651 73.2229 61.1484 73.6031 61.1484C74.0615 61.1484 74.4573 61.0625 74.7906 60.8906C75.124 60.7188 75.3818 60.4635 75.5641 60.125C75.7516 59.7917 75.8453 59.3802 75.8453 58.8906V52.4062L75.9781 50.5469ZM70.1578 54.8672V54.7031C70.1578 54.0573 70.2333 53.4714 70.3844 52.9453C70.5406 52.4141 70.762 51.9583 71.0484 51.5781C71.3401 51.1979 71.6917 50.9062 72.1031 50.7031C72.5146 50.4948 72.9781 50.3906 73.4938 50.3906C74.025 50.3906 74.4885 50.4844 74.8844 50.6719C75.2854 50.8542 75.624 51.1224 75.9 51.4766C76.1813 51.8255 76.4026 52.2474 76.5641 52.7422C76.7255 53.237 76.8375 53.7969 76.9 54.4219V55.1406C76.8427 55.7604 76.7307 56.3177 76.5641 56.8125C76.4026 57.3073 76.1813 57.7292 75.9 58.0781C75.624 58.4271 75.2854 58.6953 74.8844 58.8828C74.4833 59.0651 74.0146 59.1562 73.4781 59.1562C72.9729 59.1562 72.5146 59.0495 72.1031 58.8359C71.6969 58.6224 71.3479 58.3229 71.0563 57.9375C70.7646 57.5521 70.5406 57.099 70.3844 56.5781C70.2333 56.0521 70.1578 55.4818 70.1578 54.8672ZM71.6031 54.7031V54.8672C71.6031 55.2891 71.6448 55.6849 71.7281 56.0547C71.8167 56.4245 71.9495 56.75 72.1266 57.0312C72.3089 57.3125 72.5406 57.5339 72.8219 57.6953C73.1031 57.8516 73.4391 57.9297 73.8297 57.9297C74.3089 57.9297 74.7047 57.8281 75.0172 57.625C75.3297 57.4219 75.5771 57.1536 75.7594 56.8203C75.9469 56.487 76.0927 56.125 76.1969 55.7344V53.8516C76.1396 53.5651 76.051 53.2891 75.9313 53.0234C75.8167 52.7526 75.6656 52.513 75.4781 52.3047C75.2958 52.0911 75.0693 51.9219 74.7984 51.7969C74.5276 51.6719 74.2099 51.6094 73.8453 51.6094C73.4495 51.6094 73.1083 51.6927 72.8219 51.8594C72.5406 52.0208 72.3089 52.2448 72.1266 52.5312C71.9495 52.8125 71.8167 53.1406 71.7281 53.5156C71.6448 53.8854 71.6031 54.2812 71.6031 54.7031ZM85.9109 59H84.4656V49.6562C84.4656 49.0469 84.575 48.5339 84.7938 48.1172C85.0177 47.6953 85.338 47.3776 85.7547 47.1641C86.1714 46.9453 86.6661 46.8359 87.2391 46.8359C87.4057 46.8359 87.5724 46.8464 87.7391 46.8672C87.9109 46.888 88.0776 46.9193 88.2391 46.9609L88.1609 48.1406C88.0516 48.1146 87.9266 48.0964 87.7859 48.0859C87.6505 48.0755 87.5151 48.0703 87.3797 48.0703C87.0724 48.0703 86.8068 48.1328 86.5828 48.2578C86.3641 48.3776 86.1974 48.5547 86.0828 48.7891C85.9682 49.0234 85.9109 49.3125 85.9109 49.6562V59ZM87.7078 50.5469V51.6562H83.1297V50.5469H87.7078ZM89.0844 54.8672V54.6875C89.0844 54.0781 89.1729 53.513 89.35 52.9922C89.5271 52.4661 89.7823 52.0104 90.1156 51.625C90.449 51.2344 90.8526 50.9323 91.3266 50.7188C91.8005 50.5 92.3318 50.3906 92.9203 50.3906C93.5141 50.3906 94.0479 50.5 94.5219 50.7188C95.001 50.9323 95.4073 51.2344 95.7406 51.625C96.0792 52.0104 96.337 52.4661 96.5141 52.9922C96.6911 53.513 96.7797 54.0781 96.7797 54.6875V54.8672C96.7797 55.4766 96.6911 56.0417 96.5141 56.5625C96.337 57.0833 96.0792 57.5391 95.7406 57.9297C95.4073 58.3151 95.0036 58.6172 94.5297 58.8359C94.0609 59.0495 93.5297 59.1562 92.9359 59.1562C92.3422 59.1562 91.8083 59.0495 91.3344 58.8359C90.8604 58.6172 90.4542 58.3151 90.1156 57.9297C89.7823 57.5391 89.5271 57.0833 89.35 56.5625C89.1729 56.0417 89.0844 55.4766 89.0844 54.8672ZM90.5297 54.6875V54.8672C90.5297 55.2891 90.5792 55.6875 90.6781 56.0625C90.7771 56.4323 90.9255 56.7604 91.1234 57.0469C91.3266 57.3333 91.5792 57.5599 91.8812 57.7266C92.1833 57.888 92.5349 57.9688 92.9359 57.9688C93.3318 57.9688 93.6781 57.888 93.975 57.7266C94.2771 57.5599 94.5271 57.3333 94.725 57.0469C94.9229 56.7604 95.0714 56.4323 95.1703 56.0625C95.2745 55.6875 95.3266 55.2891 95.3266 54.8672V54.6875C95.3266 54.2708 95.2745 53.8776 95.1703 53.5078C95.0714 53.1328 94.9203 52.8021 94.7172 52.5156C94.5193 52.224 94.2693 51.9948 93.9672 51.8281C93.6703 51.6615 93.3214 51.5781 92.9203 51.5781C92.5245 51.5781 92.1755 51.6615 91.8734 51.8281C91.5766 51.9948 91.3266 52.224 91.1234 52.5156C90.9255 52.8021 90.7771 53.1328 90.6781 53.5078C90.5792 53.8776 90.5297 54.2708 90.5297 54.6875ZM100.188 51.875V59H98.7422V50.5469H100.148L100.188 51.875ZM102.828 50.5L102.82 51.8438C102.701 51.8177 102.586 51.8021 102.477 51.7969C102.372 51.7865 102.253 51.7812 102.117 51.7812C101.784 51.7812 101.49 51.8333 101.234 51.9375C100.979 52.0417 100.763 52.1875 100.586 52.375C100.409 52.5625 100.268 52.7865 100.164 53.0469C100.065 53.3021 100 53.5833 99.9688 53.8906L99.5625 54.125C99.5625 53.6146 99.612 53.1354 99.7109 52.6875C99.8151 52.2396 99.974 51.8438 100.188 51.5C100.401 51.151 100.672 50.8802 101 50.6875C101.333 50.4896 101.729 50.3906 102.188 50.3906C102.292 50.3906 102.411 50.4036 102.547 50.4297C102.682 50.4505 102.776 50.474 102.828 50.5ZM111.972 50.5469V51.6562H107.402V50.5469H111.972ZM108.948 48.4922H110.394V56.9062C110.394 57.1927 110.438 57.4089 110.527 57.5547C110.615 57.7005 110.73 57.7969 110.87 57.8438C111.011 57.8906 111.162 57.9141 111.323 57.9141C111.443 57.9141 111.568 57.9036 111.698 57.8828C111.834 57.8568 111.935 57.8359 112.003 57.8203L112.011 59C111.896 59.0365 111.745 59.0703 111.558 59.1016C111.376 59.138 111.154 59.1562 110.894 59.1562C110.54 59.1562 110.214 59.0859 109.917 58.9453C109.62 58.8047 109.383 58.5703 109.206 58.2422C109.034 57.9089 108.948 57.4609 108.948 56.8984V48.4922ZM117.325 59.1562C116.736 59.1562 116.203 59.0573 115.723 58.8594C115.249 58.6562 114.841 58.3724 114.497 58.0078C114.158 57.6432 113.898 57.2109 113.716 56.7109C113.533 56.2109 113.442 55.6641 113.442 55.0703V54.7422C113.442 54.0547 113.544 53.4427 113.747 52.9062C113.95 52.3646 114.226 51.9062 114.575 51.5312C114.924 51.1562 115.32 50.8724 115.762 50.6797C116.205 50.487 116.664 50.3906 117.137 50.3906C117.742 50.3906 118.262 50.4948 118.7 50.7031C119.143 50.9115 119.505 51.2031 119.786 51.5781C120.067 51.9479 120.276 52.3854 120.411 52.8906C120.546 53.3906 120.614 53.9375 120.614 54.5312V55.1797H114.302V54H119.169V53.8906C119.148 53.5156 119.07 53.151 118.934 52.7969C118.804 52.4427 118.596 52.151 118.309 51.9219C118.023 51.6927 117.632 51.5781 117.137 51.5781C116.809 51.5781 116.507 51.6484 116.231 51.7891C115.955 51.9245 115.718 52.1276 115.52 52.3984C115.322 52.6693 115.169 53 115.059 53.3906C114.95 53.7812 114.895 54.2318 114.895 54.7422V55.0703C114.895 55.4714 114.95 55.849 115.059 56.2031C115.174 56.5521 115.338 56.8594 115.552 57.125C115.77 57.3906 116.033 57.599 116.341 57.75C116.653 57.901 117.007 57.9766 117.403 57.9766C117.914 57.9766 118.346 57.8724 118.7 57.6641C119.054 57.4557 119.364 57.1771 119.63 56.8281L120.505 57.5234C120.322 57.7995 120.091 58.0625 119.809 58.3125C119.528 58.5625 119.182 58.7656 118.77 58.9219C118.364 59.0781 117.882 59.1562 117.325 59.1562ZM127.373 56.7578C127.373 56.5495 127.327 56.3568 127.233 56.1797C127.144 55.9974 126.959 55.8333 126.678 55.6875C126.402 55.5365 125.985 55.4062 125.428 55.2969C124.959 55.1979 124.535 55.0807 124.155 54.9453C123.78 54.8099 123.459 54.6458 123.194 54.4531C122.933 54.2604 122.733 54.0339 122.592 53.7734C122.452 53.513 122.381 53.2083 122.381 52.8594C122.381 52.526 122.454 52.2109 122.6 51.9141C122.751 51.6172 122.962 51.3542 123.233 51.125C123.509 50.8958 123.84 50.7161 124.225 50.5859C124.61 50.4557 125.04 50.3906 125.514 50.3906C126.191 50.3906 126.769 50.5104 127.248 50.75C127.728 50.9896 128.095 51.3099 128.35 51.7109C128.605 52.1068 128.733 52.5469 128.733 53.0312H127.287C127.287 52.7969 127.217 52.5703 127.077 52.3516C126.941 52.1276 126.741 51.9427 126.475 51.7969C126.215 51.651 125.894 51.5781 125.514 51.5781C125.113 51.5781 124.787 51.6406 124.537 51.7656C124.293 51.8854 124.113 52.0391 123.998 52.2266C123.889 52.4141 123.834 52.612 123.834 52.8203C123.834 52.9766 123.86 53.1172 123.912 53.2422C123.97 53.362 124.069 53.474 124.209 53.5781C124.35 53.6771 124.548 53.7708 124.803 53.8594C125.058 53.9479 125.384 54.0365 125.78 54.125C126.472 54.2812 127.043 54.4688 127.491 54.6875C127.939 54.9062 128.272 55.1745 128.491 55.4922C128.709 55.8099 128.819 56.1953 128.819 56.6484C128.819 57.0182 128.741 57.3568 128.584 57.6641C128.433 57.9714 128.212 58.237 127.92 58.4609C127.634 58.6797 127.29 58.8516 126.889 58.9766C126.493 59.0964 126.048 59.1562 125.553 59.1562C124.808 59.1562 124.178 59.0234 123.662 58.7578C123.147 58.4922 122.756 58.1484 122.491 57.7266C122.225 57.3047 122.092 56.8594 122.092 56.3906H123.545C123.566 56.7865 123.681 57.1016 123.889 57.3359C124.097 57.5651 124.353 57.7292 124.655 57.8281C124.957 57.9219 125.256 57.9688 125.553 57.9688C125.949 57.9688 126.28 57.9167 126.545 57.8125C126.816 57.7083 127.022 57.5651 127.162 57.3828C127.303 57.2005 127.373 56.9922 127.373 56.7578ZM134.406 50.5469V51.6562H129.836V50.5469H134.406ZM131.383 48.4922H132.828V56.9062C132.828 57.1927 132.872 57.4089 132.961 57.5547C133.049 57.7005 133.164 57.7969 133.305 57.8438C133.445 57.8906 133.596 57.9141 133.758 57.9141C133.878 57.9141 134.003 57.9036 134.133 57.8828C134.268 57.8568 134.37 57.8359 134.438 57.8203L134.445 59C134.331 59.0365 134.18 59.0703 133.992 59.1016C133.81 59.138 133.589 59.1562 133.328 59.1562C132.974 59.1562 132.648 59.0859 132.352 58.9453C132.055 58.8047 131.818 58.5703 131.641 58.2422C131.469 57.9089 131.383 57.4609 131.383 56.8984V48.4922ZM137.822 50.5469V59H136.369V50.5469H137.822ZM136.259 48.3047C136.259 48.0703 136.33 47.8724 136.47 47.7109C136.616 47.5495 136.83 47.4688 137.111 47.4688C137.387 47.4688 137.598 47.5495 137.744 47.7109C137.895 47.8724 137.97 48.0703 137.97 48.3047C137.97 48.5286 137.895 48.7214 137.744 48.8828C137.598 49.0391 137.387 49.1172 137.111 49.1172C136.83 49.1172 136.616 49.0391 136.47 48.8828C136.33 48.7214 136.259 48.5286 136.259 48.3047ZM141.738 52.3516V59H140.292V50.5469H141.659L141.738 52.3516ZM141.394 54.4531L140.792 54.4297C140.797 53.8516 140.883 53.3177 141.05 52.8281C141.217 52.3333 141.451 51.9036 141.753 51.5391C142.055 51.1745 142.415 50.8932 142.831 50.6953C143.253 50.4922 143.719 50.3906 144.23 50.3906C144.646 50.3906 145.021 50.4479 145.355 50.5625C145.688 50.6719 145.972 50.849 146.206 51.0938C146.446 51.3385 146.628 51.6562 146.753 52.0469C146.878 52.4323 146.941 52.9036 146.941 53.4609V59H145.488V53.4453C145.488 53.0026 145.422 52.6484 145.292 52.3828C145.162 52.112 144.972 51.9167 144.722 51.7969C144.472 51.6719 144.165 51.6094 143.8 51.6094C143.441 51.6094 143.113 51.6849 142.816 51.8359C142.524 51.987 142.271 52.1953 142.058 52.4609C141.849 52.7266 141.685 53.0312 141.566 53.375C141.451 53.7135 141.394 54.0729 141.394 54.4531ZM154.762 50.5469H156.075V58.8203C156.075 59.5651 155.924 60.2005 155.622 60.7266C155.32 61.2526 154.898 61.651 154.356 61.9219C153.82 62.1979 153.2 62.3359 152.497 62.3359C152.205 62.3359 151.861 62.2891 151.466 62.1953C151.075 62.1068 150.69 61.9531 150.309 61.7344C149.934 61.5208 149.619 61.2318 149.364 60.8672L150.122 60.0078C150.476 60.4349 150.846 60.7318 151.231 60.8984C151.622 61.0651 152.007 61.1484 152.387 61.1484C152.846 61.1484 153.242 61.0625 153.575 60.8906C153.908 60.7188 154.166 60.4635 154.348 60.125C154.536 59.7917 154.63 59.3802 154.63 58.8906V52.4062L154.762 50.5469ZM148.942 54.8672V54.7031C148.942 54.0573 149.018 53.4714 149.169 52.9453C149.325 52.4141 149.546 51.9583 149.833 51.5781C150.124 51.1979 150.476 50.9062 150.887 50.7031C151.299 50.4948 151.762 50.3906 152.278 50.3906C152.809 50.3906 153.273 50.4844 153.669 50.6719C154.07 50.8542 154.408 51.1224 154.684 51.4766C154.966 51.8255 155.187 52.2474 155.348 52.7422C155.51 53.237 155.622 53.7969 155.684 54.4219V55.1406C155.627 55.7604 155.515 56.3177 155.348 56.8125C155.187 57.3073 154.966 57.7292 154.684 58.0781C154.408 58.4271 154.07 58.6953 153.669 58.8828C153.268 59.0651 152.799 59.1562 152.262 59.1562C151.757 59.1562 151.299 59.0495 150.887 58.8359C150.481 58.6224 150.132 58.3229 149.841 57.9375C149.549 57.5521 149.325 57.099 149.169 56.5781C149.018 56.0521 148.942 55.4818 148.942 54.8672ZM150.387 54.7031V54.8672C150.387 55.2891 150.429 55.6849 150.512 56.0547C150.601 56.4245 150.734 56.75 150.911 57.0312C151.093 57.3125 151.325 57.5339 151.606 57.6953C151.887 57.8516 152.223 57.9297 152.614 57.9297C153.093 57.9297 153.489 57.8281 153.802 57.625C154.114 57.4219 154.361 57.1536 154.544 56.8203C154.731 56.487 154.877 56.125 154.981 55.7344V53.8516C154.924 53.5651 154.835 53.2891 154.716 53.0234C154.601 52.7526 154.45 52.513 154.262 52.3047C154.08 52.0911 153.854 51.9219 153.583 51.7969C153.312 51.6719 152.994 51.6094 152.63 51.6094C152.234 51.6094 151.893 51.6927 151.606 51.8594C151.325 52.0208 151.093 52.2448 150.911 52.5312C150.734 52.8125 150.601 53.1406 150.512 53.5156C150.429 53.8854 150.387 54.2812 150.387 54.7031Z" fill="black" fill-opacity="0.87"/>
<path d="M711 51.5L716 56.5L721 51.5H711Z" fill="black" fill-opacity="0.56"/>
</g>
<line x1="24" y1="71.5" x2="728" y2="71.5" stroke="black" stroke-opacity="0.42"/>
<defs>
<clipPath id="clip0_2593_5632">
<rect width="704" height="24" fill="white" transform="translate(24 42)"/>
</clipPath>
</defs>
</svg>
