<svg width="752" height="96" viewBox="0 0 752 96" fill="none" xmlns="http://www.w3.org/2000/svg">
<rect x="0.5" y="0.5" width="751" height="95" rx="3.5" stroke="black" stroke-opacity="0.1"/>
<path d="M24.9902 25.4688H27.8145C28.4551 25.4688 28.9961 25.5664 29.4375 25.7617C29.8828 25.957 30.2207 26.2461 30.4512 26.6289C30.6855 27.0078 30.8027 27.4746 30.8027 28.0293C30.8027 28.4199 30.7227 28.7773 30.5625 29.1016C30.4062 29.4219 30.1797 29.6953 29.8828 29.9219C29.5898 30.1445 29.2383 30.3105 28.8281 30.4199L28.5117 30.543H25.8574L25.8457 29.623H27.8496C28.2559 29.623 28.5938 29.5527 28.8633 29.4121C29.1328 29.2676 29.3359 29.0742 29.4727 28.832C29.6094 28.5898 29.6777 28.3223 29.6777 28.0293C29.6777 27.7012 29.6133 27.4141 29.4844 27.168C29.3555 26.9219 29.1523 26.7324 28.875 26.5996C28.6016 26.4629 28.248 26.3945 27.8145 26.3945H26.1211V34H24.9902V25.4688ZM29.9766 34L27.9023 30.1328L29.0801 30.127L31.1836 33.9297V34H29.9766ZM35.0016 34.1172C34.5602 34.1172 34.1598 34.043 33.8004 33.8945C33.4449 33.7422 33.1383 33.5293 32.8805 33.2559C32.6266 32.9824 32.4313 32.6582 32.2945 32.2832C32.1578 31.9082 32.0895 31.498 32.0895 31.0527V30.8066C32.0895 30.291 32.1656 29.832 32.318 29.4297C32.4703 29.0234 32.6773 28.6797 32.9391 28.3984C33.2008 28.1172 33.4977 27.9043 33.8297 27.7598C34.1617 27.6152 34.5055 27.543 34.8609 27.543C35.3141 27.543 35.7047 27.6211 36.0328 27.7773C36.3648 27.9336 36.6363 28.1523 36.8473 28.4336C37.0582 28.7109 37.2145 29.0391 37.316 29.418C37.4176 29.793 37.4684 30.2031 37.4684 30.6484V31.1348H32.734V30.25H36.3844V30.168C36.3688 29.8867 36.3102 29.6133 36.2086 29.3477C36.1109 29.082 35.9547 28.8633 35.7398 28.6914C35.525 28.5195 35.232 28.4336 34.8609 28.4336C34.6148 28.4336 34.3883 28.4863 34.1813 28.5918C33.9742 28.6934 33.7965 28.8457 33.648 29.0488C33.4996 29.252 33.3844 29.5 33.3023 29.793C33.2203 30.0859 33.1793 30.4238 33.1793 30.8066V31.0527C33.1793 31.3535 33.2203 31.6367 33.3023 31.9023C33.3883 32.1641 33.5113 32.3945 33.6715 32.5938C33.8355 32.793 34.0328 32.9492 34.2633 33.0625C34.4977 33.1758 34.7633 33.2324 35.0602 33.2324C35.443 33.2324 35.7672 33.1543 36.0328 32.998C36.2984 32.8418 36.5309 32.6328 36.7301 32.3711L37.3863 32.8926C37.2496 33.0996 37.0758 33.2969 36.8648 33.4844C36.6539 33.6719 36.3941 33.8242 36.0855 33.9414C35.7809 34.0586 35.4195 34.1172 35.0016 34.1172ZM40.4895 32.875L42.1184 27.6602H42.8332L42.6926 28.6973L41.0344 34H40.3371L40.4895 32.875ZM39.3938 27.6602L40.7824 32.9336L40.882 34H40.1496L38.3098 27.6602H39.3938ZM44.3918 32.8926L45.716 27.6602H46.7941L44.9543 34H44.2277L44.3918 32.8926ZM42.9914 27.6602L44.5852 32.7871L44.7668 34H44.0754L42.3703 28.6855L42.2297 27.6602H42.9914ZM47.7703 30.9004V30.7656C47.7703 30.3086 47.8367 29.8848 47.9695 29.4941C48.1023 29.0996 48.2938 28.7578 48.5438 28.4688C48.7938 28.1758 49.0965 27.9492 49.452 27.7891C49.8074 27.625 50.2059 27.543 50.6473 27.543C51.0926 27.543 51.493 27.625 51.8484 27.7891C52.2078 27.9492 52.5125 28.1758 52.7625 28.4688C53.0164 28.7578 53.2098 29.0996 53.3426 29.4941C53.4754 29.8848 53.5418 30.3086 53.5418 30.7656V30.9004C53.5418 31.3574 53.4754 31.7812 53.3426 32.1719C53.2098 32.5625 53.0164 32.9043 52.7625 33.1973C52.5125 33.4863 52.2098 33.7129 51.8543 33.877C51.5027 34.0371 51.1043 34.1172 50.659 34.1172C50.2137 34.1172 49.8133 34.0371 49.4578 33.877C49.1023 33.7129 48.7977 33.4863 48.5438 33.1973C48.2938 32.9043 48.1023 32.5625 47.9695 32.1719C47.8367 31.7812 47.7703 31.3574 47.7703 30.9004ZM48.8543 30.7656V30.9004C48.8543 31.2168 48.8914 31.5156 48.9656 31.7969C49.0398 32.0742 49.1512 32.3203 49.2996 32.5352C49.452 32.75 49.6414 32.9199 49.868 33.0449C50.0945 33.166 50.3582 33.2266 50.659 33.2266C50.9559 33.2266 51.2156 33.166 51.4383 33.0449C51.6648 32.9199 51.8523 32.75 52.0008 32.5352C52.1492 32.3203 52.2605 32.0742 52.3348 31.7969C52.4129 31.5156 52.452 31.2168 52.452 30.9004V30.7656C52.452 30.4531 52.4129 30.1582 52.3348 29.8809C52.2605 29.5996 52.1473 29.3516 51.9949 29.1367C51.8465 28.918 51.659 28.7461 51.4324 28.6211C51.2098 28.4961 50.948 28.4336 50.6473 28.4336C50.3504 28.4336 50.0887 28.4961 49.8621 28.6211C49.6395 28.7461 49.452 28.918 49.2996 29.1367C49.1512 29.3516 49.0398 29.5996 48.9656 29.8809C48.8914 30.1582 48.8543 30.4531 48.8543 30.7656ZM56.1352 28.6562V34H55.0512V27.6602H56.1059L56.1352 28.6562ZM58.1156 27.625L58.1098 28.6328C58.0199 28.6133 57.934 28.6016 57.852 28.5977C57.7738 28.5898 57.684 28.5859 57.5824 28.5859C57.3324 28.5859 57.1117 28.625 56.9203 28.7031C56.7289 28.7812 56.5668 28.8906 56.434 29.0312C56.3012 29.1719 56.1957 29.3398 56.1176 29.5352C56.0434 29.7266 55.9945 29.9375 55.9711 30.168L55.6664 30.3438C55.6664 29.9609 55.7035 29.6016 55.7777 29.2656C55.8559 28.9297 55.975 28.6328 56.1352 28.375C56.2953 28.1133 56.4984 27.9102 56.7445 27.7656C56.9945 27.6172 57.2914 27.543 57.6352 27.543C57.7133 27.543 57.8031 27.5527 57.9047 27.5723C58.0063 27.5879 58.0766 27.6055 58.1156 27.625ZM60.3574 25V34H59.2676V25H60.3574ZM64.2305 27.6602L61.4648 30.6191L59.918 32.2246L59.8301 31.0703L60.9375 29.7461L62.9062 27.6602H64.2305ZM63.2402 34L60.9785 30.9766L61.541 30.0098L64.5176 34H63.2402ZM71.2805 27.6602V28.4922H67.8527V27.6602H71.2805ZM69.0129 26.1191H70.0969V32.4297C70.0969 32.6445 70.1301 32.8066 70.1965 32.916C70.2629 33.0254 70.3488 33.0977 70.4543 33.1328C70.5598 33.168 70.673 33.1855 70.7941 33.1855C70.884 33.1855 70.9777 33.1777 71.0754 33.1621C71.177 33.1426 71.2531 33.127 71.3039 33.1152L71.3098 34C71.2238 34.0273 71.1105 34.0527 70.9699 34.0762C70.8332 34.1035 70.6672 34.1172 70.4719 34.1172C70.2062 34.1172 69.9621 34.0645 69.7395 33.959C69.5168 33.8535 69.3391 33.6777 69.2062 33.4316C69.0773 33.1816 69.0129 32.8457 69.0129 32.4238V26.1191ZM72.2977 30.9004V30.7656C72.2977 30.3086 72.3641 29.8848 72.4969 29.4941C72.6297 29.0996 72.8211 28.7578 73.0711 28.4688C73.3211 28.1758 73.6238 27.9492 73.9793 27.7891C74.3348 27.625 74.7332 27.543 75.1746 27.543C75.6199 27.543 76.0203 27.625 76.3758 27.7891C76.7352 27.9492 77.0398 28.1758 77.2898 28.4688C77.5438 28.7578 77.7371 29.0996 77.8699 29.4941C78.0027 29.8848 78.0691 30.3086 78.0691 30.7656V30.9004C78.0691 31.3574 78.0027 31.7812 77.8699 32.1719C77.7371 32.5625 77.5438 32.9043 77.2898 33.1973C77.0398 33.4863 76.7371 33.7129 76.3816 33.877C76.0301 34.0371 75.6316 34.1172 75.1863 34.1172C74.741 34.1172 74.3406 34.0371 73.9852 33.877C73.6297 33.7129 73.325 33.4863 73.0711 33.1973C72.8211 32.9043 72.6297 32.5625 72.4969 32.1719C72.3641 31.7812 72.2977 31.3574 72.2977 30.9004ZM73.3816 30.7656V30.9004C73.3816 31.2168 73.4188 31.5156 73.493 31.7969C73.5672 32.0742 73.6785 32.3203 73.827 32.5352C73.9793 32.75 74.1688 32.9199 74.3953 33.0449C74.6219 33.166 74.8855 33.2266 75.1863 33.2266C75.4832 33.2266 75.743 33.166 75.9656 33.0449C76.1922 32.9199 76.3797 32.75 76.5281 32.5352C76.6766 32.3203 76.7879 32.0742 76.8621 31.7969C76.9402 31.5156 76.9793 31.2168 76.9793 30.9004V30.7656C76.9793 30.4531 76.9402 30.1582 76.8621 29.8809C76.7879 29.5996 76.6746 29.3516 76.5223 29.1367C76.3738 28.918 76.1863 28.7461 75.9598 28.6211C75.7371 28.4961 75.4754 28.4336 75.1746 28.4336C74.8777 28.4336 74.616 28.4961 74.3895 28.6211C74.1668 28.7461 73.9793 28.918 73.827 29.1367C73.6785 29.3516 73.5672 29.5996 73.493 29.8809C73.4188 30.1582 73.3816 30.4531 73.3816 30.7656ZM84.3105 32.875L85.9395 27.6602H86.6543L86.5137 28.6973L84.8555 34H84.1582L84.3105 32.875ZM83.2148 27.6602L84.6035 32.9336L84.7031 34H83.9707L82.1309 27.6602H83.2148ZM88.2129 32.8926L89.5371 27.6602H90.6152L88.7754 34H88.0488L88.2129 32.8926ZM86.8125 27.6602L88.4062 32.7871L88.5879 34H87.8965L86.1914 28.6855L86.0508 27.6602H86.8125ZM92.9625 25V34H91.8785V25H92.9625ZM92.7047 30.5898L92.2535 30.5723C92.2574 30.1387 92.3219 29.7383 92.4469 29.3711C92.5719 29 92.7477 28.6777 92.9742 28.4043C93.2008 28.1309 93.4703 27.9199 93.7828 27.7715C94.0992 27.6191 94.4488 27.543 94.8316 27.543C95.1441 27.543 95.4254 27.5859 95.6754 27.6719C95.9254 27.7539 96.1383 27.8867 96.3141 28.0703C96.4938 28.2539 96.6305 28.4922 96.7242 28.7852C96.818 29.0742 96.8648 29.4277 96.8648 29.8457V34H95.775V29.834C95.775 29.502 95.7262 29.2363 95.6285 29.0371C95.5309 28.834 95.3883 28.6875 95.2008 28.5977C95.0133 28.5039 94.7828 28.457 94.5094 28.457C94.2398 28.457 93.9938 28.5137 93.7711 28.627C93.5523 28.7402 93.3629 28.8965 93.2027 29.0957C93.0465 29.2949 92.9234 29.5234 92.8336 29.7812C92.7477 30.0352 92.7047 30.3047 92.7047 30.5898ZM99.8156 27.6602V34H98.7258V27.6602H99.8156ZM98.6438 25.9785C98.6438 25.8027 98.6965 25.6543 98.802 25.5332C98.9113 25.4121 99.0715 25.3516 99.2824 25.3516C99.4895 25.3516 99.6477 25.4121 99.757 25.5332C99.8703 25.6543 99.927 25.8027 99.927 25.9785C99.927 26.1465 99.8703 26.291 99.757 26.4121C99.6477 26.5293 99.4895 26.5879 99.2824 26.5879C99.0715 26.5879 98.9113 26.5293 98.802 26.4121C98.6965 26.291 98.6438 26.1465 98.6438 25.9785ZM104.243 33.2266C104.501 33.2266 104.739 33.1738 104.958 33.0684C105.177 32.9629 105.356 32.8184 105.497 32.6348C105.637 32.4473 105.718 32.2344 105.737 31.9961H106.768C106.749 32.3711 106.622 32.7207 106.387 33.0449C106.157 33.3652 105.854 33.625 105.479 33.8242C105.104 34.0195 104.692 34.1172 104.243 34.1172C103.766 34.1172 103.35 34.0332 102.995 33.8652C102.643 33.6973 102.35 33.4668 102.116 33.1738C101.886 32.8809 101.712 32.5449 101.595 32.166C101.481 31.7832 101.425 31.3789 101.425 30.9531V30.707C101.425 30.2812 101.481 29.8789 101.595 29.5C101.712 29.1172 101.886 28.7793 102.116 28.4863C102.35 28.1934 102.643 27.9629 102.995 27.7949C103.35 27.627 103.766 27.543 104.243 27.543C104.739 27.543 105.173 27.6445 105.544 27.8477C105.915 28.0469 106.206 28.3203 106.417 28.668C106.632 29.0117 106.749 29.4023 106.768 29.8398H105.737C105.718 29.5781 105.643 29.3418 105.514 29.1309C105.389 28.9199 105.218 28.752 104.999 28.627C104.784 28.498 104.532 28.4336 104.243 28.4336C103.911 28.4336 103.632 28.5 103.405 28.6328C103.182 28.7617 103.005 28.9375 102.872 29.1602C102.743 29.3789 102.649 29.623 102.591 29.8926C102.536 30.1582 102.509 30.4297 102.509 30.707V30.9531C102.509 31.2305 102.536 31.5039 102.591 31.7734C102.645 32.043 102.737 32.2871 102.866 32.5059C102.999 32.7246 103.177 32.9004 103.399 33.0332C103.626 33.1621 103.907 33.2266 104.243 33.2266ZM109.221 25V34H108.137V25H109.221ZM108.963 30.5898L108.512 30.5723C108.516 30.1387 108.58 29.7383 108.705 29.3711C108.83 29 109.006 28.6777 109.233 28.4043C109.459 28.1309 109.729 27.9199 110.041 27.7715C110.358 27.6191 110.707 27.543 111.09 27.543C111.403 27.543 111.684 27.5859 111.934 27.6719C112.184 27.7539 112.397 27.8867 112.573 28.0703C112.752 28.2539 112.889 28.4922 112.983 28.7852C113.077 29.0742 113.123 29.4277 113.123 29.8457V34H112.034V29.834C112.034 29.502 111.985 29.2363 111.887 29.0371C111.789 28.834 111.647 28.6875 111.459 28.5977C111.272 28.5039 111.041 28.457 110.768 28.457C110.498 28.457 110.252 28.5137 110.03 28.627C109.811 28.7402 109.621 28.8965 109.461 29.0957C109.305 29.2949 109.182 29.5234 109.092 29.7812C109.006 30.0352 108.963 30.3047 108.963 30.5898ZM121.714 32.3184C121.714 32.1621 121.679 32.0176 121.609 31.8848C121.543 31.748 121.404 31.625 121.193 31.5156C120.986 31.4023 120.673 31.3047 120.255 31.2227C119.904 31.1484 119.586 31.0605 119.3 30.959C119.019 30.8574 118.779 30.7344 118.58 30.5898C118.384 30.4453 118.234 30.2754 118.129 30.0801C118.023 29.8848 117.97 29.6562 117.97 29.3945C117.97 29.1445 118.025 28.9082 118.134 28.6855C118.248 28.4629 118.406 28.2656 118.609 28.0938C118.816 27.9219 119.064 27.7871 119.353 27.6895C119.642 27.5918 119.964 27.543 120.32 27.543C120.828 27.543 121.261 27.6328 121.621 27.8125C121.98 27.9922 122.255 28.2324 122.447 28.5332C122.638 28.8301 122.734 29.1602 122.734 29.5234H121.65C121.65 29.3477 121.597 29.1777 121.492 29.0137C121.39 28.8457 121.24 28.707 121.041 28.5977C120.845 28.4883 120.605 28.4336 120.32 28.4336C120.019 28.4336 119.775 28.4805 119.588 28.5742C119.404 28.6641 119.269 28.7793 119.183 28.9199C119.101 29.0605 119.06 29.209 119.06 29.3652C119.06 29.4824 119.08 29.5879 119.119 29.6816C119.162 29.7715 119.236 29.8555 119.341 29.9336C119.447 30.0078 119.595 30.0781 119.787 30.1445C119.978 30.2109 120.222 30.2773 120.519 30.3438C121.039 30.4609 121.466 30.6016 121.802 30.7656C122.138 30.9297 122.388 31.1309 122.552 31.3691C122.716 31.6074 122.798 31.8965 122.798 32.2363C122.798 32.5137 122.74 32.7676 122.623 32.998C122.509 33.2285 122.343 33.4277 122.125 33.5957C121.91 33.7598 121.652 33.8887 121.351 33.9824C121.054 34.0723 120.72 34.1172 120.349 34.1172C119.791 34.1172 119.318 34.0176 118.931 33.8184C118.545 33.6191 118.252 33.3613 118.052 33.0449C117.853 32.7285 117.754 32.3945 117.754 32.043H118.843C118.859 32.3398 118.945 32.5762 119.101 32.752C119.257 32.9238 119.449 33.0469 119.675 33.1211C119.902 33.1914 120.127 33.2266 120.349 33.2266C120.646 33.2266 120.894 33.1875 121.093 33.1094C121.296 33.0312 121.451 32.9238 121.556 32.7871C121.662 32.6504 121.714 32.4941 121.714 32.3184ZM127.027 27.6602V28.4922H123.599V27.6602H127.027ZM124.759 26.1191H125.843V32.4297C125.843 32.6445 125.876 32.8066 125.943 32.916C126.009 33.0254 126.095 33.0977 126.2 33.1328C126.306 33.168 126.419 33.1855 126.54 33.1855C126.63 33.1855 126.724 33.1777 126.821 33.1621C126.923 33.1426 126.999 33.127 127.05 33.1152L127.056 34C126.97 34.0273 126.857 34.0527 126.716 34.0762C126.579 34.1035 126.413 34.1172 126.218 34.1172C125.952 34.1172 125.708 34.0645 125.486 33.959C125.263 33.8535 125.085 33.6777 124.952 33.4316C124.823 33.1816 124.759 32.8457 124.759 32.4238V26.1191ZM132.186 32.916V29.6523C132.186 29.4023 132.136 29.1855 132.034 29.002C131.936 28.8145 131.788 28.6699 131.589 28.5684C131.389 28.4668 131.143 28.416 130.85 28.416C130.577 28.416 130.337 28.4629 130.13 28.5566C129.927 28.6504 129.766 28.7734 129.649 28.9258C129.536 29.0781 129.479 29.2422 129.479 29.418H128.395C128.395 29.1914 128.454 28.9668 128.571 28.7441C128.688 28.5215 128.856 28.3203 129.075 28.1406C129.298 27.957 129.563 27.8125 129.872 27.707C130.184 27.5977 130.532 27.543 130.915 27.543C131.376 27.543 131.782 27.6211 132.134 27.7773C132.489 27.9336 132.766 28.1699 132.966 28.4863C133.169 28.7988 133.27 29.1914 133.27 29.6641V32.6172C133.27 32.8281 133.288 33.0527 133.323 33.291C133.362 33.5293 133.419 33.7344 133.493 33.9062V34H132.362C132.307 33.875 132.264 33.709 132.233 33.502C132.202 33.291 132.186 33.0957 132.186 32.916ZM132.374 30.1562L132.386 30.918H131.29C130.981 30.918 130.706 30.9434 130.464 30.9941C130.221 31.041 130.018 31.1133 129.854 31.2109C129.69 31.3086 129.565 31.4316 129.479 31.5801C129.393 31.7246 129.35 31.8945 129.35 32.0898C129.35 32.2891 129.395 32.4707 129.485 32.6348C129.575 32.7988 129.71 32.9297 129.889 33.0273C130.073 33.1211 130.298 33.168 130.563 33.168C130.895 33.168 131.188 33.0977 131.442 32.957C131.696 32.8164 131.897 32.6445 132.046 32.4414C132.198 32.2383 132.28 32.041 132.292 31.8496L132.755 32.3711C132.727 32.5352 132.653 32.7168 132.532 32.916C132.411 33.1152 132.249 33.3066 132.046 33.4902C131.846 33.6699 131.608 33.8203 131.331 33.9414C131.057 34.0586 130.749 34.1172 130.405 34.1172C129.975 34.1172 129.598 34.0332 129.274 33.8652C128.954 33.6973 128.704 33.4727 128.524 33.1914C128.348 32.9062 128.261 32.5879 128.261 32.2363C128.261 31.8965 128.327 31.5977 128.46 31.3398C128.593 31.0781 128.784 30.8613 129.034 30.6895C129.284 30.5137 129.585 30.3809 129.936 30.291C130.288 30.2012 130.68 30.1562 131.114 30.1562H132.374ZM137.78 27.6602V28.4922H134.352V27.6602H137.78ZM135.512 26.1191H136.596V32.4297C136.596 32.6445 136.629 32.8066 136.696 32.916C136.762 33.0254 136.848 33.0977 136.954 33.1328C137.059 33.168 137.172 33.1855 137.293 33.1855C137.383 33.1855 137.477 33.1777 137.575 33.1621C137.676 33.1426 137.752 33.127 137.803 33.1152L137.809 34C137.723 34.0273 137.61 34.0527 137.469 34.0762C137.332 34.1035 137.166 34.1172 136.971 34.1172C136.705 34.1172 136.461 34.0645 136.239 33.959C136.016 33.8535 135.838 33.6777 135.705 33.4316C135.577 33.1816 135.512 32.8457 135.512 32.4238V26.1191ZM141.832 34.1172C141.391 34.1172 140.99 34.043 140.631 33.8945C140.275 33.7422 139.969 33.5293 139.711 33.2559C139.457 32.9824 139.262 32.6582 139.125 32.2832C138.988 31.9082 138.92 31.498 138.92 31.0527V30.8066C138.92 30.291 138.996 29.832 139.148 29.4297C139.301 29.0234 139.508 28.6797 139.77 28.3984C140.031 28.1172 140.328 27.9043 140.66 27.7598C140.992 27.6152 141.336 27.543 141.691 27.543C142.145 27.543 142.535 27.6211 142.863 27.7773C143.195 27.9336 143.467 28.1523 143.678 28.4336C143.889 28.7109 144.045 29.0391 144.146 29.418C144.248 29.793 144.299 30.2031 144.299 30.6484V31.1348H139.564V30.25H143.215V30.168C143.199 29.8867 143.141 29.6133 143.039 29.3477C142.941 29.082 142.785 28.8633 142.57 28.6914C142.355 28.5195 142.062 28.4336 141.691 28.4336C141.445 28.4336 141.219 28.4863 141.012 28.5918C140.805 28.6934 140.627 28.8457 140.479 29.0488C140.33 29.252 140.215 29.5 140.133 29.793C140.051 30.0859 140.01 30.4238 140.01 30.8066V31.0527C140.01 31.3535 140.051 31.6367 140.133 31.9023C140.219 32.1641 140.342 32.3945 140.502 32.5938C140.666 32.793 140.863 32.9492 141.094 33.0625C141.328 33.1758 141.594 33.2324 141.891 33.2324C142.273 33.2324 142.598 33.1543 142.863 32.998C143.129 32.8418 143.361 32.6328 143.561 32.3711L144.217 32.8926C144.08 33.0996 143.906 33.2969 143.695 33.4844C143.484 33.6719 143.225 33.8242 142.916 33.9414C142.611 34.0586 142.25 34.1172 141.832 34.1172Z" fill="black" fill-opacity="0.6"/>
<path d="M148.771 29.8516L149.948 28.2344L148.179 27.707L148.454 26.8281L150.224 27.4785L150.171 25.4629H151.062L151.003 27.5137L152.749 26.8633L153.019 27.7598L151.22 28.293L152.374 29.8809L151.648 30.4258L150.564 28.7383L149.503 30.3848L148.771 29.8516Z" fill="#D32F2F"/>
<g clip-path="url(#clip0_3985_7551)">
<path d="M26.9375 47.625V59H25.4297V47.625H26.9375ZM31.0563 52.3516V59H29.6109V50.5469H30.9781L31.0563 52.3516ZM30.7125 54.4531L30.1109 54.4297C30.1161 53.8516 30.2021 53.3177 30.3688 52.8281C30.5354 52.3333 30.7698 51.9036 31.0719 51.5391C31.374 51.1745 31.7333 50.8932 32.15 50.6953C32.5719 50.4922 33.038 50.3906 33.5484 50.3906C33.9651 50.3906 34.3401 50.4479 34.6734 50.5625C35.0068 50.6719 35.2906 50.849 35.525 51.0938C35.7646 51.3385 35.9469 51.6562 36.0719 52.0469C36.1969 52.4323 36.2594 52.9036 36.2594 53.4609V59H34.8063V53.4453C34.8063 53.0026 34.7411 52.6484 34.6109 52.3828C34.4807 52.112 34.2906 51.9167 34.0406 51.7969C33.7906 51.6719 33.4833 51.6094 33.1188 51.6094C32.7594 51.6094 32.4313 51.6849 32.1344 51.8359C31.8427 51.987 31.5901 52.1953 31.3766 52.4609C31.1682 52.7266 31.0042 53.0312 30.8844 53.375C30.7698 53.7135 30.7125 54.0729 30.7125 54.4531ZM46.0203 59H43.6453L43.6609 57.7734H46.0203C46.8328 57.7734 47.5099 57.6042 48.0516 57.2656C48.5932 56.9219 48.9995 56.4427 49.2703 55.8281C49.5464 55.2083 49.6844 54.4844 49.6844 53.6562V52.9609C49.6844 52.3099 49.6063 51.7318 49.45 51.2266C49.2938 50.7161 49.0646 50.2865 48.7625 49.9375C48.4604 49.5833 48.0906 49.3151 47.6531 49.1328C47.2208 48.9505 46.7234 48.8594 46.1609 48.8594H43.5984V47.625H46.1609C46.9057 47.625 47.5854 47.75 48.2 48C48.8146 48.2448 49.3432 48.6016 49.7859 49.0703C50.2339 49.5339 50.5776 50.0964 50.8172 50.7578C51.0568 51.4141 51.1766 52.1536 51.1766 52.9766V53.6562C51.1766 54.4792 51.0568 55.2214 50.8172 55.8828C50.5776 56.5391 50.2313 57.099 49.7781 57.5625C49.3302 58.026 48.7885 58.3828 48.1531 58.6328C47.5229 58.8776 46.812 59 46.0203 59ZM44.45 47.625V59H42.9422V47.625H44.45ZM56.8813 59.1562C56.2927 59.1562 55.7589 59.0573 55.2797 58.8594C54.8057 58.6562 54.3969 58.3724 54.0531 58.0078C53.7146 57.6432 53.4542 57.2109 53.2719 56.7109C53.0896 56.2109 52.9984 55.6641 52.9984 55.0703V54.7422C52.9984 54.0547 53.1 53.4427 53.3031 52.9062C53.5063 52.3646 53.7823 51.9062 54.1313 51.5312C54.4802 51.1562 54.876 50.8724 55.3188 50.6797C55.7615 50.487 56.2198 50.3906 56.6938 50.3906C57.2979 50.3906 57.8188 50.4948 58.2563 50.7031C58.699 50.9115 59.0609 51.2031 59.3422 51.5781C59.6234 51.9479 59.8318 52.3854 59.9672 52.8906C60.1026 53.3906 60.1703 53.9375 60.1703 54.5312V55.1797H53.8578V54H58.725V53.8906C58.7042 53.5156 58.626 53.151 58.4906 52.7969C58.3604 52.4427 58.1521 52.151 57.8656 51.9219C57.5792 51.6927 57.1885 51.5781 56.6938 51.5781C56.3656 51.5781 56.0635 51.6484 55.7875 51.7891C55.5115 51.9245 55.2745 52.1276 55.0766 52.3984C54.8786 52.6693 54.725 53 54.6156 53.3906C54.5063 53.7812 54.4516 54.2318 54.4516 54.7422V55.0703C54.4516 55.4714 54.5063 55.849 54.6156 56.2031C54.7302 56.5521 54.8943 56.8594 55.1078 57.125C55.3266 57.3906 55.5896 57.599 55.8969 57.75C56.2094 57.901 56.5635 57.9766 56.9594 57.9766C57.4698 57.9766 57.9021 57.8724 58.2563 57.6641C58.6104 57.4557 58.9203 57.1771 59.1859 56.8281L60.0609 57.5234C59.8786 57.7995 59.6469 58.0625 59.3656 58.3125C59.0844 58.5625 58.738 58.7656 58.3266 58.9219C57.9203 59.0781 57.4385 59.1562 56.8813 59.1562ZM64.4688 57.6953L66.7812 50.5469H68.2578L65.2188 59H64.25L64.4688 57.6953ZM62.5391 50.5469L64.9219 57.7344L65.0859 59H64.1172L61.0547 50.5469H62.5391Z" fill="black" fill-opacity="0.87"/>
<path d="M711 51.5L716 56.5L721 51.5H711Z" fill="black" fill-opacity="0.56"/>
</g>
<line x1="24" y1="71.5" x2="728" y2="71.5" stroke="black" stroke-opacity="0.42"/>
<defs>
<clipPath id="clip0_3985_7551">
<rect width="704" height="24" fill="white" transform="translate(24 42)"/>
</clipPath>
</defs>
</svg>
