<?xml version="1.0" standalone="no"?>
<!DOCTYPE svg PUBLIC "-//W3C//DTD SVG 20010904//EN"
 "http://www.w3.org/TR/2001/REC-SVG-20010904/DTD/svg10.dtd">
<svg version="1.0" xmlns="http://www.w3.org/2000/svg"
 width="864.000000pt" height="864.000000pt" viewBox="0 0 864.000000 864.000000"
 preserveAspectRatio="xMidYMid meet">
<metadata>
Created by potrace 1.14, written by Peter Selinger 2001-2017
</metadata>
<g transform="translate(0.000000,864.000000) scale(0.100000,-0.100000)"
fill="#000000" stroke="none">
<path d="M6888 7675 c-2 -2 -28 -6 -58 -10 -30 -4 -64 -8 -75 -10 -11 -2 -45
-6 -75 -10 -30 -4 -71 -9 -90 -12 -19 -2 -53 -6 -75 -8 -22 -2 -40 -4 -40 -5
0 -2 -47 -9 -100 -15 -22 -2 -58 -7 -80 -10 -22 -3 -60 -7 -85 -11 -122 -15
-197 -141 -152 -256 9 -23 55 -71 165 -175 l27 -26 -1595 -1596 c-877 -878
-1603 -1608 -1614 -1622 -62 -81 -74 -241 -27 -344 44 -96 148 -181 248 -201
90 -19 218 8 282 58 16 13 748 742 1627 1621 879 878 1602 1597 1607 1597 4 0
21 -14 38 -31 69 -73 159 -99 235 -66 65 27 104 83 114 163 4 27 8 60 10 74 2
14 7 48 10 75 4 28 8 57 10 65 2 8 7 39 10 69 4 30 8 61 10 70 4 21 18 122 20
141 0 9 4 20 7 25 3 6 5 51 4 100 -2 75 -6 99 -29 147 -15 31 -47 75 -70 97
-41 41 -127 89 -173 97 -38 7 -83 12 -86 9z"/>
<path d="M2907 7174 c-2 -2 -21 -6 -42 -10 -96 -15 -110 -27 -667 -583 -491
-488 -540 -541 -572 -604 -31 -64 -34 -75 -32 -155 1 -83 28 -182 49 -182 4 0
7 -6 7 -12 1 -30 129 -138 163 -138 8 0 17 -3 21 -7 11 -12 57 -18 126 -17
157 3 132 -17 742 592 296 295 541 546 544 557 4 11 14 28 23 39 9 10 15 20
14 22 -2 2 -3 5 -2 7 1 4 8 31 14 57 5 23 9 119 5 130 -1 3 -3 15 -6 27 -20
108 -131 224 -249 261 -38 12 -131 23 -138 16z"/>
<path d="M4120 6668 c-19 -5 -40 -10 -47 -11 -7 -2 -16 -6 -19 -10 -4 -4 -16
-7 -26 -7 -10 0 -18 -4 -18 -8 0 -5 -9 -13 -21 -18 -11 -5 -430 -418 -929
-918 -978 -978 -949 -946 -968 -1068 -14 -97 20 -220 80 -288 41 -46 110 -94
153 -106 6 -1 24 -7 41 -12 50 -16 144 -11 206 10 32 11 58 24 58 29 0 5 7 9
16 9 9 0 426 411 928 913 1036 1035 971 961 971 1122 -1 99 -3 113 -35 175
-44 86 -141 164 -230 184 -46 11 -125 13 -160 4z"/>
<path d="M6898 6125 c-1 -1 -25 -6 -52 -9 -112 -15 -219 -95 -272 -201 -26
-54 -29 -69 -28 -150 2 -112 3 -123 15 -130 5 -4 7 -11 4 -16 -4 -5 -2 -9 3
-9 6 0 13 -12 16 -26 4 -16 163 -182 412 -432 395 -396 461 -472 470 -536 1
-11 7 -34 12 -51 9 -30 8 -143 -1 -180 -13 -50 -44 -114 -78 -160 -21 -27
-649 -660 -1396 -1406 -1266 -1264 -1362 -1358 -1423 -1387 -36 -17 -83 -33
-105 -37 -114 -18 -234 6 -322 67 -65 44 -2752 2736 -2788 2793 -28 44 -42 74
-51 110 -13 49 -15 68 -15 125 -1 36 4 77 10 93 6 15 8 27 5 27 -17 0 71 134
128 194 90 94 129 172 133 266 6 116 -30 207 -112 286 -34 34 -133 91 -133 78
0 -4 -7 -1 -15 6 -15 12 -128 17 -176 7 -117 -24 -285 -180 -406 -378 -45 -73
-106 -219 -123 -294 -7 -27 -14 -59 -17 -70 -3 -11 -6 -33 -7 -50 -1 -16 -4
-34 -7 -40 -7 -13 -3 -257 6 -310 26 -166 103 -355 192 -475 18 -25 36 -52 39
-60 5 -15 2795 -2806 2849 -2850 95 -77 223 -148 360 -199 155 -57 464 -73
604 -32 19 6 37 9 39 6 3 -3 11 0 19 6 7 6 13 9 13 6 0 -10 164 54 236 92 40
22 106 64 147 95 82 62 2815 2789 2882 2876 64 84 174 270 159 270 -3 0 2 13
10 28 15 28 43 124 52 177 3 17 9 47 14 68 9 43 10 337 1 337 -3 0 -7 15 -8
33 -3 46 -50 204 -79 261 -13 28 -24 56 -24 63 0 7 -4 13 -10 13 -5 0 -10 9
-10 19 0 11 -3 21 -7 23 -8 3 -73 95 -73 102 0 24 -854 876 -910 909 -25 14
-56 28 -70 31 -14 3 -38 8 -55 11 -16 3 -35 7 -42 10 -6 2 -13 2 -15 0z"/>
</g>
</svg>
